<svg xmlns="http://www.w3.org/2000/svg" viewBox="0 0 288 287.86">
    <defs>
        <style>.cls-1{fill:#f2f2f3;fill-rule:evenodd;}</style>
    </defs>
    <title>Asset 4</title>
    <g id="Layer_2" data-name="Layer 2">
        <g id="Layer_1-2" data-name="Layer 1">
            <path class="cls-1"
                  d="M0,171.85v-3.49c.51-.11.7-.65,1.18-.86.83.51,1.33,1.43,2.23,2,.31-.29.61-.57.89-.86l17.3-17.28,6.82-6.83c.19-.18.46-.32.47-.69l-.76-.78L4.37,119.28c-.19-.19-.38-.39-.58-.57s-.27-.33-.56-.29c-.72.55-1.26,1.37-2.06,1.89L0,119.43v-3.49c.13,0,.28,0,.37.1.27.21.5.45.77.7a5.55,5.55,0,0,0,1.43-1.43,7,7,0,0,0-1.43-1.39,10.11,10.11,0,0,1-.77.71c-.09.07-.24.05-.37.08v-3.5c.51-.1.7-.64,1.18-.85.83.5,1.33,1.43,2.23,2,.31-.3.61-.58.89-.87L21.6,94.18l6.82-6.83c.19-.18.46-.32.47-.69l-.76-.78L4.37,62.14c-.19-.2-.38-.4-.58-.58s-.27-.33-.6-.28c-.29.28-.62.63-1,.95s-.6.74-1.06.92L0,62.29v-3.5a1,1,0,0,1,.37.1,10,10,0,0,1,.77.71,5.59,5.59,0,0,0,1.43-1.44,6.91,6.91,0,0,0-1.43-1.38,9.94,9.94,0,0,1-.77.7c-.09.07-.24.05-.37.08v-3.5c.51-.1.7-.64,1.18-.85.83.5,1.33,1.43,2.23,2,.31-.3.61-.58.89-.87L21.6,37l6.82-6.83c.19-.19.46-.32.47-.7l-.76-.78L4.37,5c-.19-.2-.38-.39-.58-.58s-.27-.33-.56-.28C2.51,4.68,2,5.5,1.17,6L0,5.14V1.64a1,1,0,0,1,.37.1c.27.21.5.46.77.71A5.67,5.67,0,0,0,2.58,1L1.65,0h3.7L6.2,1.06c-.3.39-.67.7-1,1A6.53,6.53,0,0,0,4.14,3.29l25.5,25.52A1.81,1.81,0,0,0,30,28.6L55.19,3.46a2.82,2.82,0,0,0,.17-.32c-.52-.53-1.06-1.06-1.58-1.6-.16-.16-.29-.35-.45-.54l1-1H57.8c-.26.34-.53.67-.81,1a1.38,1.38,0,0,0,.16.27l1.16,1.17A5.63,5.63,0,0,0,59.77,1l-.94-1h3.71l.83,1a7.59,7.59,0,0,1-1,1.06,8.45,8.45,0,0,0-1,1L87,28.71a.51.51,0,0,0,.2-.11L112.37,3.46a1.73,1.73,0,0,0,.18-.32c-.53-.53-1.06-1.06-1.58-1.6-.16-.16-.29-.35-.45-.54.35-.37.67-.68,1-1H115l-.81,1a1.38,1.38,0,0,0,.16.27c.37.39.76.77,1.16,1.17A5.63,5.63,0,0,0,117,1L116,0h3.7l.84,1a7.65,7.65,0,0,1-1,1.06,10.32,10.32,0,0,0-1,1c8.56,8.56,17.07,17.05,25.6,25.57a.58.58,0,0,0,.2-.11L169.56,3.46a1.73,1.73,0,0,0,.18-.32c-.53-.53-1.06-1.06-1.58-1.6-.16-.16-.3-.35-.46-.54l1-1h3.5c-.27.34-.54.67-.81,1a1.38,1.38,0,0,0,.16.27c.37.39.76.77,1.16,1.17A6,6,0,0,0,174.15,1l-.94-1h3.7l.84,1a7.65,7.65,0,0,1-1,1.06,9.3,9.3,0,0,0-1,1l25.59,25.57a.53.53,0,0,0,.21-.11L226.75,3.46a1.32,1.32,0,0,0,.17-.32l-1.58-1.6c-.15-.16-.29-.35-.45-.54l1-1h3.5l-.81,1a2.18,2.18,0,0,0,.15.27c.38.39.77.77,1.17,1.17A5.75,5.75,0,0,0,231.33,1l-.93-1h3.7l.84,1a7.65,7.65,0,0,1-1,1.06,9.3,9.3,0,0,0-1,1l25.59,25.57a.53.53,0,0,0,.21-.11L283.94,3.46a1.32,1.32,0,0,0,.17-.32l-1.58-1.6c-.15-.16-.29-.35-.45-.54l1-1h3.5l-.86,1.07a17.15,17.15,0,0,0,1.42,1.4l.88-.83v3.7l-.9.7c-.78-.59-1.34-1.39-2.08-1.94-.11,0-.19,0-.23.07l-25.15,25.1a2.72,2.72,0,0,0-.25.32,2.91,2.91,0,0,0,.17.28Q272.18,42.46,284.78,55c.05.05.13.05.24.08.74-.55,1.3-1.35,2.09-1.94l.89.68v3.7c-.3-.26-.59-.53-.91-.82a19.1,19.1,0,0,0-1.4,1.45,12.79,12.79,0,0,0,1.43,1.42l.88-.82v3.7l-.9.7c-.78-.59-1.34-1.39-2.08-1.95-.11,0-.19,0-.23.08q-12.59,12.54-25.15,25.1a2.72,2.72,0,0,0-.25.32,1.72,1.72,0,0,0,.17.28l25.22,25.17a.74.74,0,0,0,.24.08c.74-.55,1.3-1.35,2.09-1.94l.89.68v3.7l-.91-.82c-.49.5-1,.91-1.4,1.44a12.87,12.87,0,0,0,1.43,1.43l.88-.82v3.7l-.91.7c-.75-.61-1.34-1.38-2.07-2-.11,0-.19,0-.23.08Q272.2,131,259.64,143.57a2.6,2.6,0,0,0-.25.31,2.24,2.24,0,0,0,.17.29l25.22,25.17a1.1,1.1,0,0,0,.24.08c.74-.55,1.3-1.35,2.09-1.94l.89.67v3.7l-.91-.81a19,19,0,0,0-1.4,1.44,12.87,12.87,0,0,0,1.43,1.43l.88-.82v3.7l-.91.7c-.75-.61-1.34-1.38-2.07-2-.11,0-.19,0-.23.07l-25.15,25.1a2.72,2.72,0,0,0-.25.32,1.14,1.14,0,0,0,.17.28l25.22,25.18a1.1,1.1,0,0,0,.24.08c.74-.55,1.3-1.36,2.09-1.94l.89.67V229l-.89-.79a12.61,12.61,0,0,0-1.42,1.41,13,13,0,0,0,1.43,1.44l.88-.82v3.7l-.9.69c-.78-.59-1.34-1.38-2.08-1.94-.11,0-.19,0-.23.07l-25.15,25.1a2.72,2.72,0,0,0-.25.32,2.91,2.91,0,0,0,.17.28q12.62,12.6,25.22,25.17c.05.05.13.05.26.09.7-.59,1.3-1.33,2-2l.91.69v3.7c-.36-.18-.48-.67-1-.74-.21.2-.44.4-.65.63s-.55.42-.63.8l.77.87a1.64,1.64,0,0,1-.35.1h-3.05a4.64,4.64,0,0,1-1-1.08l2-2.05a1.91,1.91,0,0,0-.19-.32q-12.58-12.57-25.17-25.15a2.13,2.13,0,0,0-.28-.16c-.2.19-.41.37-.6.56l-4.51,4.51-19.71,19.69a3,3,0,0,0-.72.83c.64.78,1.42,1.35,2,2.15-.21.23-.4.42-.57.63a1.13,1.13,0,0,1-1,.41c-.83,0-1.65,0-2.47,0a2.21,2.21,0,0,1-.35-.08c.15-.46.69-.57.68-1.08a10.32,10.32,0,0,0-1.29-1.27,3.73,3.73,0,0,0-1.38,1.47l.76.91c-1.12.1-2.15,0-3.17,0a.64.64,0,0,1-.39-.11,3,3,0,0,1-.87-1c.64-.76,1.42-1.35,2-2.16-.29-.28-.54-.56-.81-.82l-10-10-14-14a2.41,2.41,0,0,0-.88-.72l-25.59,25.46c.67.9,1.52,1.46,2.11,2.3-.28.28-.5.54-.76.77a1.14,1.14,0,0,1-.44.22,25.76,25.76,0,0,1-3.23-.07l.79-1a7.45,7.45,0,0,0-1.44-1.42,15.17,15.17,0,0,0-1.32,1.36c.1.49.65.59.67,1a.73.73,0,0,1-.22.06h-2.05c-1.16,0-1.16,0-1.93-.86a.63.63,0,0,1-.1-.23c.58-.76,1.41-1.33,2-2.11-.8-1-24.95-25.05-25.58-25.53a.13.13,0,0,0-.09,0,1.94,1.94,0,0,0-.31.26l-25.08,25.09a.22.22,0,0,0,0,.08s0,.07,0,.17l1.64,1.64a4.57,4.57,0,0,1,.35.48c-.18.19-.33.33-.46.49a1.32,1.32,0,0,1-1.16.51c-.75,0-1.51,0-2.26,0-.16,0-.32,0-.54-.06l.83-1.05a9.29,9.29,0,0,0-1.48-1.34c-.24.24-.48.44-.68.67s-.55.42-.64.8l.34.38.53.59c-1.29,0-2.41,0-3.51,0-.2-.18-.38-.34-.55-.51s-.31-.34-.49-.55l2-2.07a2,2,0,0,0-.18-.32L87.2,259.22a1.48,1.48,0,0,0-.29-.17l-.59.56L81.88,264,62.1,283.81a2.86,2.86,0,0,0-.72.83c.64.77,1.4,1.36,2,2.14-.22.24-.41.43-.57.63a1.13,1.13,0,0,1-1,.42c-.82,0-1.64,0-2.47,0a3.86,3.86,0,0,1-.43-.1c.21-.22.36-.36.49-.52s.21-.32.33-.49c-.25-.26-.45-.5-.68-.71s-.41-.54-.91-.62l-.85,1c-.12.15-.22.31-.33.46l.8,1c-1.12.1-2.14,0-3.17,0a.61.61,0,0,1-.38-.11,3.15,3.15,0,0,1-.88-1c.65-.76,1.42-1.35,2-2.15l-.8-.83L44.83,274q-7.12-7.12-14.26-14.24c-.26-.26-.47-.58-.74-.67L4.23,284.68c.55.73,1.39,1.3,2,2.13-.27.28-.5.54-.75.76a1,1,0,0,1-.44.23,26,26,0,0,1-3.24-.07l.83-1a11,11,0,0,0-1.46-1.37c-.27.24-.51.49-.77.7a.89.89,0,0,1-.38.08v-3.49c.51-.11.7-.65,1.18-.86.83.5,1.33,1.43,2.23,2,.31-.3.61-.58.89-.87l17.3-17.27,6.82-6.83c.19-.19.46-.32.47-.7l-.76-.78L4.37,233.58c-.19-.19-.38-.39-.58-.58s-.27-.32-.56-.28c-.72.55-1.26,1.37-2.06,1.89L0,233.73v-3.49c.13,0,.28,0,.37.09.27.21.5.46.77.71a5.59,5.59,0,0,0,1.43-1.44,6.91,6.91,0,0,0-1.43-1.38,9.94,9.94,0,0,1-.77.7A.84.84,0,0,1,0,229v-3.49c.51-.11.7-.65,1.18-.86.83.51,1.33,1.43,2.23,2l.89-.86,17.3-17.28,6.82-6.83c.19-.19.46-.32.47-.69l-.76-.79L4.37,176.43c-.19-.19-.38-.39-.58-.58s-.27-.32-.56-.28c-.72.55-1.26,1.37-2.06,1.89L0,176.58v-3.49c.13,0,.28,0,.37.09.27.22.5.46.77.71a5.72,5.72,0,0,0,1.43-1.43,6.71,6.71,0,0,0-1.43-1.39,9.94,9.94,0,0,1-.77.7A.84.84,0,0,1,0,171.85ZM87.72,29.61C96.2,38.08,104.58,46.46,113,54.83a3.89,3.89,0,0,0,.44.36c.75-.64,1.36-1.39,2.11-2,.87.53,1.37,1.46,2.21,2,.77-.6,25-24.84,25.55-25.54a3,3,0,0,0-.73-.82L118.7,4.94l-.51-.51c-.15-.13-.31-.24-.48-.38-.81.61-1.35,1.42-2.16,2-.8-.59-1.36-1.39-2.12-2a1.28,1.28,0,0,0-.29.15Zm112.73,0c-.57-.72-24.86-25-25.55-25.52a5.32,5.32,0,0,0-.46.37c-.42.41-.82.83-1.24,1.23a4.29,4.29,0,0,1-.48.36c-.8-.6-1.35-1.41-2.14-2a4.91,4.91,0,0,0-1,.85L145.78,28.75c-.15.14-.3.28-.44.43s-.22.32-.34.49l.82.85,23.71,23.69c.19.19.38.39.58.58s.32.24.49.37c.8-.59,1.34-1.41,2.16-2,.18.16.34.28.48.42.42.41.82.83,1.24,1.23a3.23,3.23,0,0,0,.42.29C183.43,46.58,191.92,38.11,200.45,29.59ZM229.9,6c-.77-.57-1.33-1.38-2.12-1.95a3.67,3.67,0,0,0-.93.81L205.61,26.1l-3.05,3.06a6.15,6.15,0,0,0-.41.5l25.27,25.25c.1.09.22.15.35.25.8-.57,1.35-1.39,2.14-2,.86.53,1.36,1.46,2.21,2,.92-.72,18.78-18.49,25.16-25,.14-.14.26-.29.4-.44a2.87,2.87,0,0,0-.76-.88L233.07,4.94c-.17-.17-.33-.35-.51-.51s-.31-.24-.51-.4c-.38.37-.71.71-1.06,1A4.21,4.21,0,0,1,229.9,6ZM112.55,231.73c-.32-.33-.67-.66-1-1a6.62,6.62,0,0,1-1-1.13l2-2.07c-.69-.9-20.46-20.75-25.13-25.24a4.78,4.78,0,0,0-.51-.41l-1.4,1.4L62.1,226.66a3.08,3.08,0,0,0-.72.84c.64.76,1.39,1.35,2,2.11a8.14,8.14,0,0,1-1,1.09,7,7,0,0,0-1.07,1.19l25.55,25.55c.28-.23.47-.37.63-.53C94.22,250.38,111.93,232.59,112.55,231.73Zm-57.18-4.28c-.21-.23-.38-.44-.58-.63l-4.21-4.21-20-20a2.2,2.2,0,0,0-.92-.73L4.11,227.37c.67.88,1.49,1.46,2.12,2.29l-2.07,2.09a4.31,4.31,0,0,0,.34.43c3,3.1,24.48,24.53,25.27,25.14.82-.6,18.86-18.52,25.13-25,.17-.17.3-.36.49-.58-.56-.56-1.09-1.09-1.61-1.63-.16-.16-.29-.35-.44-.53C54,228.82,54.77,228.23,55.37,227.45Zm146.84-26.32c.24.25.49.52.76.79l23.85,23.83c.17.17.33.35.51.51s.32.22.51.35c.38-.37.71-.72,1.06-1a4.41,4.41,0,0,1,1.07-.94c.78.62,1.34,1.42,2.18,2l.9-.86,23.34-23.33c.32-.32.64-.63.94-.95a4.18,4.18,0,0,0,.38-.49l-25.36-25.32a1.07,1.07,0,0,0-.31-.17c-.74.59-1.31,1.38-2.11,2-.18-.15-.34-.27-.48-.4-.42-.41-.82-.83-1.24-1.23-.14-.14-.26-.33-.4-.31Zm-1.7,0a3,3,0,0,0-.79-.92q-8.35-8.37-16.72-16.72l-7.35-7.34c-.23-.23-.42-.53-.79-.62-.78.58-1.32,1.4-2.13,1.94-.8-.58-1.35-1.39-2.15-2a5,5,0,0,0-.93.84l-23.56,23.54c-.24.24-.49.48-.73.73s-.24.31-.39.51l25.35,25.31a2.15,2.15,0,0,0,.32.17c.72-.61,1.32-1.36,2.08-2a5.8,5.8,0,0,1,.5.41c.42.4.82.82,1.24,1.23a5.75,5.75,0,0,0,.53.38ZM117.7,226.61a3.66,3.66,0,0,0,1-.83l15.42-15.4q4.34-4.32,8.65-8.65c.21-.21.5-.38.57-.78l-25.15-25.12c-.11-.11-.25-.2-.42-.34-.17.15-.34.27-.48.41-.42.4-.82.82-1.24,1.23a4.69,4.69,0,0,1-.49.34c-.78-.62-1.34-1.41-2.11-1.95-.94.72-19.24,18.93-25.18,25-.14.15-.27.31-.44.51.28.29.53.57.79.83l23.85,23.84c.17.17.34.34.52.5a4.62,4.62,0,0,0,.48.36c.79-.6,1.35-1.41,2.16-2C116.35,225.25,116.94,226,117.7,226.61ZM30.53,201.05l25.33,25.3a2.93,2.93,0,0,0,.35.25c.8-.57,1.34-1.38,2.13-2,.87.53,1.36,1.46,2.21,2,.92-.72,18.74-18.46,25.17-25l.41-.47a4.62,4.62,0,0,0-.77-.86L61.51,176.38c-.17-.17-.34-.35-.52-.51s-.3-.24-.48-.38c-.79.62-1.35,1.42-2.17,2-.76-.62-1.35-1.38-2.09-2a1.11,1.11,0,0,0-.31.16ZM202.1,258.2c8.5,8.5,16.91,16.9,25.33,25.3a4,4,0,0,0,.37.27c.74-.63,1.35-1.38,2.09-2,.88.55,1.38,1.46,2.22,2,.1-.06.17-.08.22-.12l.45-.43q12.39-12.39,24.79-24.79a.22.22,0,0,0,.05-.08,1.09,1.09,0,0,0,0-.15,3,3,0,0,0-.72-.8l-23.85-23.84c-.17-.17-.34-.34-.52-.5s-.3-.24-.47-.37c-.81.61-1.35,1.42-2.17,2-.77-.62-1.35-1.39-2.13-2a2.93,2.93,0,0,0-.35.25Zm82-87.85c-.22-.25-.39-.46-.57-.65-7.89-8-24.41-24.43-25.08-24.92a1.25,1.25,0,0,0-.24.16L233,170.17a.22.22,0,0,0,0,.08,1.09,1.09,0,0,0,0,.17c.52.52,1.08,1.07,1.63,1.64a3.25,3.25,0,0,1,.35.49c-.38.38-.72.71-1,1.06a5.79,5.79,0,0,0-1,1.09l.81.81,9.67,9.66q7.15,7.17,14.33,14.31a2.73,2.73,0,0,0,.8.72c.89-.73,25.05-24.9,25.57-25.58-.59-.77-1.4-1.35-2-2.17C282.77,171.73,283.45,171.06,284.15,170.35Zm-108.37,4.22,25.6,25.59a.8.8,0,0,0,.21-.12q12.58-12.56,25.16-25.14a1.63,1.63,0,0,0,.18-.32c-.33-.33-.67-.66-1-1a6.21,6.21,0,0,1-1-1.13l2-2.08c-.62-.8-22.41-22.66-25.21-25.31-.12-.11-.26-.2-.42-.32l-.76.74-4.29,4.28-19.77,19.77a3.05,3.05,0,0,0-.73.83c.65.76,1.4,1.36,2,2.13C177.14,173.26,176.39,173.86,175.78,174.57ZM30.65,86.83c.24.25.49.53.75.79l23.85,23.84c.17.17.33.35.51.5s.32.22.51.36c.38-.37.71-.72,1.06-1a4.38,4.38,0,0,1,1.07-.94c.8.6,1.34,1.42,2.13,2a3.84,3.84,0,0,0,.95-.83l23.06-23,1.23-1.24c.13-.14.23-.31.38-.5L60.79,61.38a1.72,1.72,0,0,0-.31-.16c-.73.59-1.32,1.36-2.1,2-.19-.16-.35-.27-.49-.41-.42-.4-.83-.82-1.24-1.23-.15-.14-.27-.32-.4-.31Zm82.81-25.58-.15,0a2,2,0,0,0-.32.25L87.91,86.6a.36.36,0,0,0,0,.09,1.28,1.28,0,0,0,0,.21L113,112a3.91,3.91,0,0,0,.41.33c.82-.57,1.36-1.39,2.17-2,.82.57,1.35,1.45,2.18,2,.76-.58,25-24.83,25.55-25.54a2.86,2.86,0,0,0-.73-.82L118.63,62c-.15-.15-.29-.3-.44-.44s-.31-.24-.49-.38c-.79.61-1.35,1.41-2.16,2C114.76,62.6,114.19,61.8,113.46,61.25ZM145,86.69c.69.87,22.23,22.49,25.18,25.28.12.12.26.21.42.35.18-.15.35-.27.49-.4.42-.41.82-.83,1.24-1.23.14-.14.26-.33.55-.29.73.55,1.27,1.37,2.06,1.89.73-.55,25-24.79,25.54-25.5,0,0,0-.08,0-.1a2,2,0,0,0-.25-.32l-25.1-25.06-.1,0h-.16c-.72.55-1.28,1.34-2.07,1.93-.81-.58-1.36-1.39-2.13-2a1.3,1.3,0,0,0-.29.15Zm112.81.08L232.52,61.54c-.12-.12-.26-.21-.42-.34-.18.14-.34.26-.49.4-.41.41-.82.83-1.24,1.23a4.86,4.86,0,0,1-.51.37c-.37-.37-.7-.72-1.05-1a4.57,4.57,0,0,0-1-.93c-.93.72-19.3,19-25.18,25-.14.14-.26.3-.43.5.28.3.53.57.79.83l23.85,23.84c.17.17.33.35.51.51s.32.23.49.35c.79-.6,1.34-1.41,2.14-2,.8.62,1.37,1.4,2.12,2a1.22,1.22,0,0,0,.31-.17ZM30.59,143.91c.28.3.53.58.79.84l23.93,23.91a6,6,0,0,0,.44.43,4.62,4.62,0,0,0,.48.36c.8-.6,1.34-1.41,2.15-2,.78.62,1.37,1.39,2.11,2a2.56,2.56,0,0,0,.9-.74l14.11-14.1,10-10a2,2,0,0,0,.66-.82L61,118.69c-.12-.12-.26-.21-.42-.34-.18.14-.34.26-.49.4-.42.4-.82.82-1.24,1.22a2.81,2.81,0,0,1-.48.35c-.79-.61-1.34-1.41-2.12-1.94-.84.65-17.36,17.08-25.11,25Zm112.71,0c-.67-.85-24.93-25.06-25.6-25.57-.15.12-.31.23-.46.37-.41.41-.82.83-1.24,1.23a2.81,2.81,0,0,1-.48.35c-.79-.6-1.34-1.41-2.14-2a5.16,5.16,0,0,0-.94.85L88.59,143.05a6,6,0,0,0-.44.43c-.12.15-.22.32-.34.49l.76.78,23.92,23.91c.15.14.29.3.44.43s.32.24.48.36c.8-.59,1.35-1.41,2.16-2,.78.63,1.37,1.39,2.1,2a1.43,1.43,0,0,0,.31-.16Zm31.62,25.56c.22-.19.35-.3.47-.42l25-25a.19.19,0,0,0,0-.09.27.27,0,0,0,0-.09c-.56-.71-24.84-25-25.54-25.51-.84.5-1.33,1.44-2.2,1.94-.79-.59-1.34-1.4-2.13-2a5.3,5.3,0,0,0-1,.86L145.78,143a5.93,5.93,0,0,0-.43.44c-.13.14-.23.31-.36.48.31.32.56.59.83.85l23.71,23.69c.19.2.38.4.58.58s.32.25.5.38c.78-.61,1.34-1.4,2.15-2C173.53,168.08,174.12,168.85,174.92,169.5ZM29.8,143.1l.84-.81,23.85-23.83c.17-.17.35-.33.51-.51s.23-.31.38-.49l-2.06-2.1c.63-.83,1.46-1.4,2.06-2.22l-.82-.85L30.64,88.38c-.15-.14-.29-.3-.44-.43s-.31-.23-.46-.34c-1.21,1.08-25,24.94-25.55,25.58.59.78,1.44,1.34,2,2.19l-2,2.06C4.71,118.13,28.45,141.91,29.8,143.1ZM86.92,87.57c-.3.3-.57.56-.83.83L71.76,102.71,62,112.45a2.13,2.13,0,0,0-.65.79c.36.36.71.69,1,1a6.27,6.27,0,0,1,1,1.1c-.53.56-1.08,1.08-1.59,1.61-.16.17-.4.28-.39.43L87,143a1,1,0,0,0,.2-.12l25.15-25.14a1.44,1.44,0,0,0,.18-.32c-.52-.52-1.06-1.05-1.58-1.59-.16-.16-.29-.35-.45-.54l2-2.09C112,112.53,87.84,88.34,86.92,87.57Zm57.32,0L118.6,113.23c.56.72,1.38,1.31,2,2.14l-2.07,2.09c.16.19.28.35.42.5,4.85,5,24.33,24.39,25.2,25.07.84-.62,20.73-20.39,25.21-25.06.13-.15.24-.31.4-.51l-1.68-1.7a5.63,5.63,0,0,1-.36-.46c.66-.78,1.43-1.36,2.05-2.18Zm57.06,0c-.1.09-.22.17-.31.26L175.85,113a.13.13,0,0,0,0,.09.61.61,0,0,0,0,.14c.59.7,1.34,1.29,2,2.08-.66.78-1.44,1.39-2.07,2.18l.76.78,9.66,9.66,14.4,14.38a2.9,2.9,0,0,0,.81.72c1-.84,25.07-24.93,25.56-25.59-.59-.77-1.41-1.35-2-2.17l2.05-2.07a1.74,1.74,0,0,0-.19-.31q-12.57-12.58-25.16-25.14A1.22,1.22,0,0,0,201.3,87.61ZM233,113.24c.54.73,1.39,1.29,2,2.14l-2,2.06c.69.9,19.2,19.48,25.13,25.23.14.14.3.26.49.43.3-.29.58-.54.84-.81l23.92-23.9a6.09,6.09,0,0,0,.44-.44,5.62,5.62,0,0,0,.38-.49l-1-1.06-1-1c.63-.84,1.47-1.41,2.06-2.23l-.82-.85-23.92-23.9A5.81,5.81,0,0,0,259,88a3.42,3.42,0,0,0-.39-.29Zm-30.86,30.65.83.88,23.86,23.83c.17.17.33.35.51.51s.31.22.51.36c.37-.37.7-.72,1.06-1a4.16,4.16,0,0,1,1.06-.94c.8.59,1.34,1.42,2.14,2a4.27,4.27,0,0,0,.94-.84L255.66,146l1.67-1.67a4.34,4.34,0,0,0,.38-.5l-25.35-25.32c-.07-.06-.18-.09-.31-.17-.74.6-1.33,1.36-2.1,2-.19-.16-.36-.27-.5-.41-.42-.4-.82-.82-1.24-1.23a.69.69,0,0,0-.72-.27Zm-83.6,26.46,1.69,1.7a5.74,5.74,0,0,1,.35.47c-.66.77-1.41,1.37-2,2.11.13.15.2.27.3.36L144,200.12a.19.19,0,0,0,.09,0h.09c.76-.62,25-24.82,25.54-25.54-.59-.77-1.4-1.36-2-2.18.55-.58,1.09-1.09,1.61-1.63a5,5,0,0,0,.42-.52c-.92-1.08-24.95-25-25.57-25.51-.87.66-19.63,19.32-25.2,25.06C118.81,170,118.69,170.16,118.53,170.35Zm-6,0c-.62-.82-22.19-22.47-25.2-25.31-.13-.12-.27-.21-.44-.34l-1.47,1.47L62.1,169.52a2.75,2.75,0,0,0-.72.83c.64.76,1.39,1.36,2,2.11a7.57,7.57,0,0,1-1,1.09,8.5,8.5,0,0,0-1,1L87,200.18c.15-.14.37-.3.56-.49,8.1-8,24.43-24.36,25-25.11-.32-.33-.67-.66-1-1a6.3,6.3,0,0,1-1-1.14Zm-57.15-.05c-.28-.3-.51-.55-.75-.79l-4.22-4.21q-9.91-9.93-19.85-19.84a2.2,2.2,0,0,0-.89-.72l-.8.79-14.1,14.09-10,10a2.13,2.13,0,0,0-.65.79c.37.36.71.69,1,1a5.9,5.9,0,0,1,1,1.1l-2,2.07c.13.17.22.31.33.43C7.3,178,29,199.57,29.76,200.18c.82-.59,18.79-18.45,25.14-25,.16-.16.3-.35.49-.58-.56-.56-1.09-1.09-1.61-1.63-.16-.16-.29-.35-.45-.54ZM60.52,55.16a3.84,3.84,0,0,0,.95-.83l17.82-17.8c2.11-2.11,4.22-4.21,6.32-6.33.18-.18.46-.32.46-.71L60.88,4.31a4.37,4.37,0,0,0-.36-.25c-.17.14-.33.26-.48.4-.41.41-.82.83-1.24,1.23a3.75,3.75,0,0,1-.51.35c-.37-.36-.7-.71-1-1a4.35,4.35,0,0,0-1-.93C55.32,4.77,34.5,25.5,31,29.2c-.11.12-.21.26-.36.43l.8.83L55.24,54.3c.17.17.33.35.51.51s.32.23.52.37c.37-.37.7-.72,1-1a4.5,4.5,0,0,1,1.08-1C59.18,53.79,59.74,54.59,60.52,55.16ZM174.88,283.75a3.25,3.25,0,0,0,.89-.74l13.89-13.88L199.84,259a2.1,2.1,0,0,0,.66-.82L175.34,233c-.12-.11-.26-.21-.43-.34-.17.15-.34.26-.48.4-.42.41-.82.83-1.24,1.23a5.08,5.08,0,0,1-.52.37c-.37-.36-.7-.71-1-1a4.37,4.37,0,0,0-1-.93c-.7.53-16,15.76-25,24.88l-.56.62a4,4,0,0,0,.77.86q12,12,23.92,23.91l.44.44c.15.13.32.23.48.36.8-.6,1.35-1.41,2.17-2C173.54,282.39,174.12,283.16,174.88,283.75Zm-61.45-51.13a5,5,0,0,0-1,.88L88.59,257.33c-.14.15-.3.29-.43.44s-.23.32-.36.49l.83.85,23.71,23.69.58.58c.15.13.32.24.49.37.8-.59,1.34-1.41,2.16-2,.18.15.34.27.48.41.42.41.82.83,1.24,1.23a4.69,4.69,0,0,0,.49.34c.17-.15.3-.25.42-.37l25-25a.26.26,0,0,0,0-.09.27.27,0,0,0,0-.09c-.54-.7-24.83-25-25.56-25.54-.79.56-1.33,1.44-2.21,2ZM60.54,283.78c.18-.15.3-.23.39-.32L86,258.38a.15.15,0,0,0,0-.09.72.72,0,0,0,0-.19l-.73-.75L61.49,233.51,61,233c-.15-.13-.27-.32-.56-.28-.72.55-1.26,1.37-2.08,1.9-.79-.59-1.34-1.41-2.14-2a4.74,4.74,0,0,0-.93.84L31.41,257.33a6,6,0,0,0-.43.44,5.88,5.88,0,0,0-.38.5L56,283.58a1.19,1.19,0,0,0,.3.15c.76-.57,1.32-1.37,2.12-2C59.15,282.36,59.73,283.14,60.54,283.78Zm223.58-56.27c-.62-.79-22.56-22.81-25.22-25.31-.12-.11-.26-.2-.42-.32l-.83.81-14.18,14.17-9.88,9.88a2.05,2.05,0,0,0-.64.76c.63.77,1.41,1.34,2,2.08a.58.58,0,0,1,0,.16c-.5.51-1,1-1.5,1.55-.15.16-.4.27-.39.43l25.6,25.58a.51.51,0,0,0,.2-.11l25.16-25.14a2,2,0,0,0,.18-.32c-.53-.53-1.06-1-1.58-1.59-.16-.17-.4-.29-.39-.62ZM29.74,30.47a2.6,2.6,0,0,0-.32.26L4.28,55.88a.26.26,0,0,0,0,.09v.14c.59.7,1.35,1.29,2,2a7.48,7.48,0,0,1-1,1.09,8.06,8.06,0,0,0-1,1.13l.74.77,9.74,9.74L29,85.2a3,3,0,0,0,.8.71c1-.83,25.07-24.93,25.56-25.58-.58-.78-1.41-1.36-2-2.18l2-2.07a1.55,1.55,0,0,0-.19-.31L30,30.63A1.47,1.47,0,0,0,29.74,30.47Zm57.19,0C85.5,31.74,61.89,55.39,61.39,56c.58.79,1.44,1.34,2,2.2l-2,2.06a2,2,0,0,0,.21.31L86.8,85.82l.09,0,.17,0c.23-.23.51-.48.77-.74l23.85-23.83.51-.51c.13-.15.23-.31.37-.49-.7-.72-1.37-1.4-2-2.1a9.73,9.73,0,0,1,1-1.09,5.9,5.9,0,0,0,1-1.11C111.77,55.11,87.61,31,86.93,30.46ZM169.78,56c-.33-.34-.58-.62-.85-.88L145,31.23c-.15-.14-.28-.3-.44-.43s-.31-.23-.45-.34c-1.34,1.2-25,24.93-25.55,25.59.59.77,1.44,1.33,2,2.19l-2,2a1,1,0,0,0,.13.24c.16.18.33.35.5.52L144,85.81a.16.16,0,0,0,.09,0l.17,0c.23-.22.51-.48.77-.74l23.85-23.83c.17-.17.35-.33.51-.51l.37-.49-2.06-2.12C168.34,57.42,169.08,56.81,169.78,56Zm57.12,4.33a5.86,5.86,0,0,0-1-1.05,10.14,10.14,0,0,1-1.07-1.16c.56-.56,1.09-1.08,1.61-1.62a6.28,6.28,0,0,0,.42-.51c-1-1.13-24.95-25-25.58-25.52,0,0-.07,0-.09,0l-.46.41L175.86,55.86a.2.2,0,0,0-.05.09,1,1,0,0,0,0,.17c.53.52,1.09,1.07,1.64,1.64a4.42,4.42,0,0,1,.35.47c-.67.76-1.41,1.36-2,2.12.12.14.19.25.29.35L201.2,85.83a.15.15,0,0,0,.09,0h.09C202.17,85.24,226.37,61,226.9,60.35ZM284.16,56c-.32-.34-.58-.62-.84-.88L269.14,41q-4.9-4.9-9.82-9.8a2.17,2.17,0,0,0-.88-.72L232.88,55.9a6.85,6.85,0,0,0,1,1.17A6.62,6.62,0,0,1,235,58.24l-2,2c.56.73,24.93,25.09,25.65,25.62.26-.24.54-.49.8-.76l23.93-23.9.43-.44c.13-.15.24-.31.4-.5-.59-.59-1.14-1.14-1.69-1.71a4.8,4.8,0,0,1-.36-.47C282.79,57.43,283.43,56.77,284.16,56ZM175.68,227.46c.62.63,1.19,1.18,1.73,1.75a3.25,3.25,0,0,1,.35.49c-.38.38-.72.71-1,1.06a6,6,0,0,0-1,1.08l.81.82,9.67,9.66q7.17,7.17,14.33,14.31a2.73,2.73,0,0,0,.8.72c.91-.74,25.06-24.9,25.57-25.58-.59-.77-1.4-1.35-2-2.18L227,227.5c-.22-.25-.39-.46-.57-.65-7.84-8-24.42-24.44-25.13-25ZM144.2,257.32c.1-.08.27-.2.42-.34,4.83-4.63,24.46-24.35,25.1-25.21-.59-.78-1.41-1.36-2-2.18l2.05-2.06c-.65-.87-18.27-18.56-25.06-25.18-.16-.16-.35-.3-.55-.47-.2.19-.38.34-.55.51L119,227c-.16.16-.29.35-.45.53.65.77,1.41,1.37,2,2.13a8,8,0,0,1-1,1.08,9.41,9.41,0,0,0-1,1.05ZM172.73,171l-.72.69c-.23.24-.45.49-.71.78l1.45,1.44a7.49,7.49,0,0,0,1.38-1.55c-.29-.29-.54-.56-.81-.82S173,171.26,172.73,171Zm58.62,1.42a7.28,7.28,0,0,0-1.47-1.38c-.25.24-.48.44-.68.66s-.53.42-.65.79a11.17,11.17,0,0,0,1.38,1.37A8.81,8.81,0,0,0,231.35,172.46Zm0-57.08a3.53,3.53,0,0,0-1.5-1.4,7.78,7.78,0,0,0-1.28,1.4c.25.26.45.49.67.7l.74.68ZM58.39,116.77a6.8,6.8,0,0,0,1.35-1.49,6.48,6.48,0,0,0-1.42-1.35l-.68.65-.72.78A17.83,17.83,0,0,0,58.39,116.77Zm171.48-60-1.16,1.17a1.87,1.87,0,0,0-.17.3A11.61,11.61,0,0,0,230,59.62a8,8,0,0,0,1.37-1.47A7.06,7.06,0,0,0,229.87,56.76Zm-57.13,0c-.29.28-.52.48-.73.7s-.45.48-.7.76l.81.84c.19.19.39.36.62.57a5.43,5.43,0,0,0,1.38-1.49C173.66,57.66,173.24,57.23,172.74,56.74Zm-57.24,0a18.5,18.5,0,0,0-1.37,1.42,11,11,0,0,0,1.41,1.4A5.73,5.73,0,0,0,117,58.12,9.9,9.9,0,0,0,115.5,56.77ZM56.93,58.2c.29.3.49.53.71.74a3,3,0,0,0,.76.65c.26-.24.49-.44.69-.66a2.08,2.08,0,0,0,.65-.78,7.57,7.57,0,0,0-1.39-1.38A11.3,11.3,0,0,0,56.93,58.2Zm114.43,57.16a2.6,2.6,0,0,0,.25.31l1.09,1.1a5.86,5.86,0,0,0,1.43-1.47,7,7,0,0,0-1.44-1.39c-.4.4-.79.78-1.16,1.17A1.37,1.37,0,0,0,171.36,115.36Zm-113,112.83a8.73,8.73,0,0,0-1.35,1.5c.25.25.45.48.67.69a2.65,2.65,0,0,0,.76.65c.26-.24.48-.43.69-.65a2.3,2.3,0,0,0,.65-.79A7.54,7.54,0,0,0,58.32,228.19Zm57.21,2.88a5.67,5.67,0,0,0,1.4-1.5,7.24,7.24,0,0,0-1.42-1.35l-.69.66c-.23.24-.44.49-.71.78Zm57.19-2.88c-.28.28-.51.48-.72.7s-.53.42-.64.79a11.91,11.91,0,0,0,1.38,1.37,8.55,8.55,0,0,0,1.4-1.42A8.39,8.39,0,0,0,172.72,228.19Zm57.18,0a14.23,14.23,0,0,0-1.4,1.4,12.61,12.61,0,0,0,1.41,1.42,5.84,5.84,0,0,0,1.41-1.44A7.12,7.12,0,0,0,229.9,228.22ZM114.14,115.31a3.54,3.54,0,0,0,.28.36l1.09,1.1a5.86,5.86,0,0,0,1.43-1.47,7,7,0,0,0-1.44-1.39C115,114.38,114.56,114.8,114.14,115.31ZM56.9,172.5c.46.45.84.84,1.23,1.21a1.13,1.13,0,0,0,.27.16,8.59,8.59,0,0,0,1.37-1.39,5.74,5.74,0,0,0-1.39-1.36Zm57.22,0c.29.3.49.52.71.73a2.7,2.7,0,0,0,.76.66c.26-.24.48-.44.69-.66a2.3,2.3,0,0,0,.65-.79,7.84,7.84,0,0,0-1.39-1.37A10.67,10.67,0,0,0,114.12,172.5Z"/>
            <path class="cls-1"
                  d="M67.68,0l-.93,1c.19.23.35.44.54.63Q69.65,4,72,6.37l14.1,14.09a2.89,2.89,0,0,0,.89.75c.14-.12.3-.23.45-.37C92,16.48,106.52,1.86,107.15,1l-.8-1h2.88l.83,1.05c-.09.12-.16.23-.25.33L87.12,24s-.12,0-.19.06c-.6-.47-22.3-22.12-23.06-23,.21-.43.65-.68.93-1.06Z"/>
            <path class="cls-1"
                  d="M124.87,0l-.94,1c.2.23.36.44.55.63Q126.84,4,129.2,6.37l14.1,14.09a3,3,0,0,0,.88.75c.15-.12.31-.23.46-.37,4.54-4.36,19.07-19,19.7-19.82l-.8-1h2.88l.83,1.05a2.91,2.91,0,0,1-.26.33L144.31,24s-.13,0-.19.06c-.6-.47-22.3-22.12-23.06-23,.21-.43.65-.68.93-1.06Z"/>
            <path class="cls-1"
                  d="M10.49,0,9.56,1c.19.23.35.44.54.63l4.72,4.72,14.1,14.09a2.89,2.89,0,0,0,.89.75c.14-.12.31-.23.45-.37C34.8,16.48,49.34,1.86,50,1l-.8-1H52l.83,1.05c-.09.12-.16.23-.25.33L29.93,24s-.12,0-.19.06c-.6-.47-22.3-22.12-23-23,.2-.43.64-.68.92-1.06Z"/>
            <path class="cls-1"
                  d="M239.24,0l-.93,1c.2.23.36.44.54.63,1.57,1.58,3.15,3.15,4.72,4.72l14.1,14.09a3,3,0,0,0,.89.75,5.19,5.19,0,0,0,.45-.37c4.55-4.36,19.08-19,19.71-19.82l-.8-1h2.88l.83,1.05c-.1.12-.17.23-.26.33L258.69,24a.6.6,0,0,1-.19.06c-.61-.47-22.3-22.12-23.06-23,.21-.43.64-.68.92-1.06Z"/>
            <path class="cls-1"
                  d="M182.06,0l-.94,1c.2.23.36.44.54.63l4.73,4.72,14.09,14.09a3.14,3.14,0,0,0,.89.75c.15-.12.31-.23.46-.37,4.54-4.36,19.07-19,19.7-19.82l-.8-1h2.88l.83,1.05c-.1.12-.17.23-.26.33L201.5,24s-.13,0-.19.06c-.6-.47-22.3-22.12-23.06-23,.21-.43.64-.68.93-1.06Z"/>
            <path class="cls-1"
                  d="M288,10.28c-.28-.29-.46-.69-.88-.82-.64.48-19.53,19.35-20.18,20.15.11.14.22.3.35.45a5.93,5.93,0,0,0,.43.44L286.26,49c.26.27.53.52.82.81l.92-.7V52l-.86.66c-.65-.48-22.05-21.81-23.09-23,.08-.36.39-.54.63-.77q4.71-4.73,9.44-9.44L286.26,7.32c.26-.27.53-.53.82-.81l.92.69Z"/>
            <path class="cls-1"
                  d="M288,238.87c-.27-.3-.48-.67-.87-.83-.65.49-19.54,19.35-20.19,20.16.11.14.22.3.35.45a5.93,5.93,0,0,0,.43.44l18.54,18.52c.26.27.53.52.82.81l.92-.7v2.88l-.86.66c-.65-.48-22-21.8-23.09-23,.08-.36.39-.54.63-.77q4.63-4.65,9.3-9.3l12.28-12.27c.26-.27.53-.52.82-.8l.92.68Z"/>
            <path class="cls-1"
                  d="M288,67.43c-.28-.3-.46-.69-.88-.82-.64.48-19.53,19.34-20.18,20.15.11.14.22.3.35.45s.28.29.43.44l18.54,18.52.82.8.92-.69v2.88l-.86.65c-.65-.48-22.05-21.8-23.09-23,.08-.36.39-.54.63-.78q4.71-4.73,9.44-9.44l12.14-12.13.82-.8.92.68Z"/>
            <path class="cls-1"
                  d="M288,124.57a2.76,2.76,0,0,0-.87-.83c-.65.5-19.54,19.36-20.19,20.16.11.15.22.31.35.46a5.81,5.81,0,0,0,.43.43l18.54,18.53.82.8.92-.69v2.87l-.86.66c-.65-.48-22.05-21.8-23.09-23,.08-.36.39-.54.63-.78q4.71-4.73,9.44-9.44l12.14-12.13.82-.8.92.68Z"/>
            <path class="cls-1"
                  d="M288,181.72c-.21-.23-.41-.46-.62-.68a.89.89,0,0,0-.25-.14c-.65.49-19.54,19.35-20.19,20.15.11.14.22.31.35.45a4.47,4.47,0,0,0,.43.44l18.54,18.53.82.8.92-.7v2.88l-.86.66c-.65-.48-22.05-21.81-23.09-23,.08-.37.39-.55.63-.78q4.71-4.72,9.44-9.44l12.14-12.13.82-.8.92.68Z"/>
            <path class="cls-1"
                  d="M0,163.22a5.48,5.48,0,0,1,.52.31c.21.17.4.36.64.59.23-.19.44-.35.63-.54l5.37-5.37L20.6,144.79l.77-.78c-.07-.43-.39-.61-.63-.84l-8.64-8.64-10-10c-.26-.27-.53-.52-.8-.78-.58.1-.72.79-1.28.83V121.7a5.39,5.39,0,0,0,.52-.3,8.19,8.19,0,0,0,.64-.58c.17.14.35.25.49.39l2.4,2.39,19.47,19.46c.26.26.51.54.78.82a3.51,3.51,0,0,1-.28.37L1.33,166.88s-.12,0-.18.06L0,166.1Z"/>
            <path class="cls-1"
                  d="M0,220.37a4,4,0,0,1,.52.31c.21.16.4.36.64.58a6.77,6.77,0,0,0,.63-.53l5.37-5.37L20.6,201.94c.26-.27.53-.53.77-.79-.07-.42-.39-.6-.63-.83-2.87-2.89-5.76-5.76-8.64-8.64l-10-10c-.26-.27-.53-.52-.8-.78-.58.1-.72.79-1.28.83v-2.88a3,3,0,0,0,.52-.3,8,8,0,0,0,.64-.57c.17.14.35.24.49.38l2.4,2.4,19.47,19.46c.26.26.51.54.78.82a2.52,2.52,0,0,1-.28.36L1.33,224s-.12,0-.18.06L0,223.25Z"/>
            <path class="cls-1"
                  d="M0,48.93a5.39,5.39,0,0,1,.52.3c.21.17.4.37.64.59.23-.19.44-.35.63-.53l5.37-5.37L20.6,30.5l.77-.79c-.07-.42-.39-.6-.63-.83C17.87,26,15,23.12,12.1,20.24l-10-10-.8-.77c-.58.09-.72.79-1.28.83V7.4a5.39,5.39,0,0,0,.52-.3,8,8,0,0,0,.64-.57,4.88,4.88,0,0,1,.49.38L4.05,9.3,23.52,28.77c.26.26.51.53.78.82A3.27,3.27,0,0,1,24,30L1.33,52.58c0,.05-.12.05-.18.06L0,51.8Z"/>
            <path class="cls-1"
                  d="M0,277.52a5.39,5.39,0,0,1,.52.3c.21.17.4.37.64.59.23-.19.44-.34.63-.53l5.37-5.37L20.6,259.09l.77-.79c-.07-.42-.39-.6-.63-.83-2.87-2.89-5.76-5.76-8.64-8.64l-10-10-.8-.77c-.58.1-.72.79-1.28.83V236a5.39,5.39,0,0,0,.52-.3,8,8,0,0,0,.64-.57c.17.14.35.24.49.38.8.79,1.6,1.6,2.4,2.4l19.47,19.46c.26.26.51.53.78.82a3.27,3.27,0,0,1-.28.36L1.33,281.17c0,.05-.12.05-.18.06L0,280.39Z"/>
            <path class="cls-1"
                  d="M0,106.07a5.48,5.48,0,0,1,.52.31c.21.17.4.36.64.59.23-.19.44-.35.63-.53l5.37-5.37L20.6,87.64l.77-.78c-.07-.42-.39-.6-.63-.84L12.1,77.38l-10-10-.8-.77c-.58.09-.72.78-1.28.83V64.55a5.39,5.39,0,0,0,.52-.3c.22-.17.41-.36.64-.57a4.88,4.88,0,0,1,.49.38l2.4,2.39L23.52,85.91c.26.26.51.54.78.83a3.27,3.27,0,0,1-.28.36L1.33,109.73a.35.35,0,0,1-.18.06L0,109Z"/>
            <path class="cls-1"
                  d="M0,155.82a1.12,1.12,0,0,1,.38.09c.26.21.5.45.77.7.13-.1.25-.16.35-.25L13.83,144c0-.45-.37-.63-.6-.86-2.47-2.48-4.94-4.94-7.41-7.41l-3.93-3.92c-.21-.22-.44-.42-.69-.65l-1.2,1v-2.67c.13,0,.29,0,.38-.08.26-.21.5-.45.78-.72.22.2.43.37.62.56,6.27,6.16,14.1,14.06,14.54,14.64-.61.81-10.22,10.51-14.68,14.79a5.08,5.08,0,0,1-.48.4c-.28-.26-.52-.51-.78-.72-.09-.07-.25-.06-.38-.09Z"/>
            <path class="cls-1"
                  d="M0,213a1.12,1.12,0,0,1,.38.09c.26.21.5.45.77.7.13-.1.25-.16.35-.25l12.33-12.32c0-.46-.37-.63-.6-.86q-3.71-3.72-7.41-7.41L1.89,189c-.21-.21-.44-.41-.69-.65l-1.2,1v-2.67c.13,0,.29,0,.38-.08.26-.21.5-.46.78-.72.22.2.43.37.62.55,6.27,6.17,14.1,14.07,14.54,14.65-.61.81-10.22,10.51-14.68,14.79a5.08,5.08,0,0,1-.48.4c-.28-.26-.52-.51-.78-.72a1.06,1.06,0,0,0-.38-.1Z"/>
            <path class="cls-1"
                  d="M0,270.12a.79.79,0,0,1,.38.09c.26.21.5.45.77.69a2.41,2.41,0,0,0,.35-.25l12.33-12.31c0-.46-.37-.63-.6-.87l-7.41-7.41-3.93-3.92c-.21-.21-.44-.41-.69-.65l-1.2,1V243.8c.13,0,.29,0,.38-.08.26-.2.5-.45.78-.71.22.19.43.36.62.55,6.26,6.16,14.1,14.06,14.54,14.65C15.71,259,6.1,268.71,1.64,273a5.05,5.05,0,0,1-.48.39c-.28-.26-.52-.5-.78-.71-.09-.08-.25-.07-.38-.1Z"/>
            <path class="cls-1"
                  d="M0,41.53a.79.79,0,0,1,.38.09c.26.2.5.45.77.69a2.41,2.41,0,0,0,.35-.25L13.83,29.75c0-.46-.37-.63-.6-.87L5.82,21.47,1.89,17.55c-.21-.21-.44-.41-.69-.65l-1.2,1V15.21c.13,0,.29,0,.38-.08.26-.21.5-.45.78-.71.22.19.43.36.62.55C8,21.13,15.88,29,16.32,29.62c-.61.81-10.22,10.5-14.68,14.79-.14.13-.3.25-.48.39-.28-.26-.52-.5-.78-.71C.29,44,.13,44,0,44Z"/>
            <path class="cls-1"
                  d="M0,98.67a1.12,1.12,0,0,1,.38.09c.26.21.5.45.77.7a3.53,3.53,0,0,0,.35-.25L13.83,86.9c0-.46-.37-.64-.6-.87L5.82,78.62,1.89,74.7c-.21-.22-.44-.42-.69-.65L0,75V72.36a.89.89,0,0,0,.38-.08c.26-.21.5-.45.78-.71.22.19.43.36.62.55C8,78.28,15.88,86.18,16.32,86.77c-.61.81-10.22,10.5-14.68,14.78a5.08,5.08,0,0,1-.48.4c-.28-.26-.52-.5-.78-.72-.09-.07-.25-.06-.38-.09Z"/>
            <path class="cls-1"
                  d="M17.9,0l-.81,1a1.59,1.59,0,0,0,.17.27L29.54,13.72a1.46,1.46,0,0,0,.94-.62Q35,8.59,39.55,4L41.8,1.79c.22-.21.42-.44.64-.67C42.3.6,41.8.4,41.55,0H44c.31.32.61.65.95,1a3.08,3.08,0,0,1-.3.39L30.21,15.86c-.12.12-.25.22-.35.31h-.15l-.09-.05L14.93,1.45a2.51,2.51,0,0,1-.26-.31.37.37,0,0,1,0-.14l.79-1Z"/>
            <path class="cls-1"
                  d="M75.08,0l-.8,1a1.14,1.14,0,0,0,.17.27L86.73,13.72a1.46,1.46,0,0,0,.94-.62l9.22-9.2L99,1.79l.64-.67C99.49.6,99,.4,98.74,0h2.47l1,1a4.41,4.41,0,0,1-.3.39L87.4,15.86c-.12.12-.25.22-.35.31H86.9l-.09-.05L72.12,1.45a2.51,2.51,0,0,1-.26-.31.37.37,0,0,1,0-.14l.79-1Z"/>
            <path class="cls-1"
                  d="M132.27,0l-.8,1a1.14,1.14,0,0,0,.17.27l12.43,12.4c.38,0,.56-.37.79-.6l9.21-9.2c.71-.7,1.41-1.4,2.11-2.11l.64-.67c-.14-.52-.64-.72-.89-1.12h2.47l.95,1a3.13,3.13,0,0,1-.31.39L144.59,15.86c-.12.12-.26.22-.35.31h-.15a.19.19,0,0,1-.09-.05L129.31,1.45a2.51,2.51,0,0,1-.26-.31A.37.37,0,0,1,129,1l.78-1Z"/>
            <path class="cls-1"
                  d="M189.46,0l-.8,1a1.14,1.14,0,0,0,.17.27l12.42,12.4c.39,0,.56-.37.79-.6q4.62-4.59,9.22-9.2l2.11-2.11.64-.67c-.14-.52-.64-.72-.89-1.12h2.47l.95,1a3.13,3.13,0,0,1-.31.39Q209,8.64,201.77,15.86a4.6,4.6,0,0,1-.35.31h-.15l-.09-.05L186.5,1.45a4,4,0,0,1-.27-.31,1.13,1.13,0,0,1,0-.14L187,0Z"/>
            <path class="cls-1"
                  d="M246.65,0l-.81,1a2.62,2.62,0,0,0,.17.27l12.43,12.4c.39,0,.56-.37.79-.6q4.59-4.56,9.15-9.13l2.17-2.18c.22-.21.43-.44.64-.67-.13-.52-.63-.72-.88-1.12h2.47l1,1a4.43,4.43,0,0,1-.31.39L259,15.86c-.12.12-.25.22-.35.31h-.15l-.09-.05L243.68,1.45c-.09-.09-.17-.21-.26-.31s0-.07,0-.14l.79-1Z"/>
            <path class="cls-1"
                  d="M288,17.68l-.8-.72h-.15L287,17,274.74,29.2c-.09.1-.17.21-.26.32a.71.71,0,0,0,0,.12,1.05,1.05,0,0,0,.15.24L287,42.28c.51-.08.63-.56,1-.75V44l-.77.74a.49.49,0,0,1-.16,0,.2.2,0,0,1-.09-.05L272.07,29.8a.64.64,0,0,1-.08-.2.89.89,0,0,1,.14-.25l14.87-15,1,.87Z"/>
            <path class="cls-1"
                  d="M288,246.27l-.8-.72h-.15a.14.14,0,0,0-.09.05l-12.22,12.18c-.09.1-.17.21-.26.32a.71.71,0,0,0,0,.12,1.05,1.05,0,0,0,.15.24l12.4,12.4c.51-.08.63-.56,1-.75v2.46l-.77.74a.49.49,0,0,1-.16,0,.2.2,0,0,1-.09-.05l-14.91-14.89a.64.64,0,0,1-.08-.2.89.89,0,0,1,.14-.25l15-14.93.9.79Z"/>
            <path class="cls-1"
                  d="M288,74.83l-.8-.72a.71.71,0,0,0-.15,0l-.09,0L274.74,86.35c-.09.1-.17.21-.26.32a.71.71,0,0,0,0,.12,1.05,1.05,0,0,0,.15.24L287,99.43c.51-.08.63-.57,1-.76v2.47l-.77.74h-.16l-.09,0L272.07,87a.71.71,0,0,1-.08-.21,1,1,0,0,1,.14-.24l15-14.93.9.79Z"/>
            <path class="cls-1"
                  d="M288,189.12l-.8-.71h-.15a.2.2,0,0,0-.09.05l-12.22,12.19c-.09.09-.17.2-.26.31a1.23,1.23,0,0,0,0,.13,1.28,1.28,0,0,0,.15.23l12.4,12.4c.51-.08.63-.56,1-.75v2.46l-.77.75h-.16a.18.18,0,0,1-.09,0l-14.91-14.9a.64.64,0,0,1-.08-.2.72.72,0,0,1,.14-.24l15-14.94.9.8Z"/>
            <path class="cls-1"
                  d="M288,132l-.8-.71h-.15l-.09.05L274.74,143.5c-.09.09-.17.21-.26.31a1.23,1.23,0,0,0,0,.13,1,1,0,0,0,.15.23l12.4,12.4c.51-.07.63-.56,1-.75v2.47l-.77.74h-.16l-.09,0L272.07,144.1a.84.84,0,0,1-.08-.21,1,1,0,0,1,.14-.24c5-5,9.94-9.93,15-14.93l.9.79Z"/>
            <path class="cls-1"
                  d="M288,196.73c-.21-.23-.41-.46-.62-.68a1.21,1.21,0,0,0-.28-.16,2,2,0,0,0-.32.25l-4.71,4.72s0,.13-.07.19,0,.14.07.19l4.63,4.65a3.89,3.89,0,0,0,.41.35l.89-.67v2.05l-.83.71c-.66-.46-6.73-6.5-7.32-7.27.49-.66,5.71-5.93,7.24-7.31l.91.72Z"/>
            <path class="cls-1"
                  d="M288,139.58c-.21-.23-.41-.46-.62-.68a1.21,1.21,0,0,0-.28-.16c-.11.09-.23.16-.32.25l-4.71,4.73s0,.12-.07.18,0,.15.07.19l4.63,4.65a3.89,3.89,0,0,0,.41.35l.89-.67v2.06l-.83.71c-.66-.47-6.73-6.5-7.32-7.28.49-.65,5.71-5.93,7.24-7.3l.91.71Z"/>
            <path class="cls-1"
                  d="M288,253.88c-.21-.23-.41-.47-.62-.68a1.21,1.21,0,0,0-.28-.16,2,2,0,0,0-.32.25L282.07,258s0,.12-.07.19,0,.14.07.18q2.31,2.34,4.63,4.66a3.89,3.89,0,0,0,.41.34l.89-.67v2.06l-.83.71c-.66-.46-6.73-6.5-7.32-7.27.49-.66,5.71-5.93,7.24-7.31l.91.71Z"/>
            <path class="cls-1"
                  d="M288,25.29c-.28-.29-.46-.69-.91-.83a1.72,1.72,0,0,0-.31.24l-4.71,4.72s0,.12-.07.19,0,.14.07.18q2.31,2.34,4.63,4.66a3.89,3.89,0,0,0,.41.34l.89-.67v2.06l-.83.71c-.66-.46-6.73-6.5-7.32-7.27.49-.66,5.71-5.94,7.24-7.31L288,23Z"/>
            <path class="cls-1"
                  d="M288,82.43c-.28-.28-.46-.69-.91-.83a3.65,3.65,0,0,0-.31.24l-4.71,4.73s0,.12-.07.18,0,.15.07.19q2.31,2.34,4.63,4.66c.11.11.25.21.41.34l.89-.67v2.06l-.83.71c-.66-.46-6.73-6.5-7.32-7.28.49-.65,5.71-5.93,7.24-7.3l.91.71Z"/>
            <path class="cls-1"
                  d="M197.07,0l-.92,1a35.79,35.79,0,0,0,2.56,2.65c.83.86,1.69,1.69,2.55,2.55a1.84,1.84,0,0,0,.38-.21l4.71-4.71a2.12,2.12,0,0,0,.17-.27l-.81-1h2.06l.85,1a2.35,2.35,0,0,1-.16.29l-7,7c-.13,0-.17.05-.2,0s-.06,0-.09-.05l-7-6.95c-.06-.07-.11-.17-.16-.24.11-.47.69-.59.75-1.07Z"/>
            <path class="cls-1"
                  d="M139.88,0,139,1a34,34,0,0,0,2.57,2.65c.83.86,1.68,1.69,2.54,2.55a1.84,1.84,0,0,0,.38-.21l4.71-4.71a1.39,1.39,0,0,0,.17-.27l-.8-1h2.05c.29.33.57.67.85,1a1.5,1.5,0,0,1-.16.29l-7,7c-.13,0-.17.05-.2,0s-.06,0-.08-.05l-7-6.95a1.77,1.77,0,0,1-.17-.24c.11-.47.69-.59.75-1.07Z"/>
            <path class="cls-1"
                  d="M82.7,0l-.93,1a34,34,0,0,0,2.57,2.65c.83.86,1.68,1.69,2.54,2.55A1.84,1.84,0,0,0,87.26,6C88.84,4.44,90.4,2.87,92,1.3A1.39,1.39,0,0,0,92.14,1l-.8-1h2c.29.33.57.67.85,1a1.11,1.11,0,0,1-.16.29l-7,7c-.14,0-.17.05-.21,0s-.06,0-.08-.05l-7-6.95c-.07-.07-.11-.17-.17-.24.11-.47.69-.59.75-1.07Z"/>
            <path class="cls-1"
                  d="M254.26,0l-.92,1a33.87,33.87,0,0,0,2.56,2.65c.83.86,1.69,1.69,2.55,2.55a1.84,1.84,0,0,0,.38-.21l4.71-4.71c.06-.07.1-.17.17-.27l-.81-1H265c.28.33.56.67.85,1a2.35,2.35,0,0,1-.16.29l-7,7c-.14,0-.17.05-.2,0s-.06,0-.09-.05l-7-6.95a1.67,1.67,0,0,1-.16-.24c.11-.47.69-.59.75-1.07Z"/>
            <path class="cls-1"
                  d="M25.51,0l-.93,1a34,34,0,0,0,2.57,2.65c.83.86,1.68,1.69,2.55,2.55A2,2,0,0,0,30.07,6L34.78,1.3A1.39,1.39,0,0,0,35,1l-.8-1h2.06c.28.33.56.67.85,1a1.48,1.48,0,0,1-.17.29l-7,7c-.14,0-.17.05-.2,0a.16.16,0,0,1-.09-.05l-7-6.95a1.67,1.67,0,0,1-.16-.24c.1-.47.68-.59.75-1.07Z"/>
            <path class="cls-1"
                  d="M0,91.07a2.3,2.3,0,0,1,.44.23c.24.19.45.41.7.64a12.44,12.44,0,0,0,1.8-1.66c.59-.57,1.16-1.16,1.74-1.74s1.15-1.14,1.7-1.71c-.5-.69-4.32-4.53-5.14-5.2-.28,0-.4.23-.57.38s-.36.41-.67.42V80.38l1.18-.91a4.26,4.26,0,0,1,.43.34Q4.85,83,8.08,86.28c.14.14.26.3.41.48-.13.16-.23.3-.34.42L1.23,94.09,0,93.12Z"/>
            <path class="cls-1"
                  d="M0,205.36a3,3,0,0,1,.44.23c.24.2.45.41.7.64A6.47,6.47,0,0,0,2.51,205c.44-.42.87-.86,1.3-1.29l1.3-1.31c.43-.43.88-.83,1.26-1.29-.49-.67-4.31-4.52-5.13-5.18-.28,0-.4.22-.57.37s-.36.42-.67.43v-2.06l1.18-.9a3.19,3.19,0,0,1,.43.34l6.47,6.46c.14.14.26.3.41.48a4.36,4.36,0,0,1-.34.42l-6.92,6.91-1.23-1Z"/>
            <path class="cls-1"
                  d="M0,148.21a2.34,2.34,0,0,1,.44.24c.24.19.45.41.7.64a6.47,6.47,0,0,0,1.37-1.23c.44-.42.87-.87,1.3-1.3l1.3-1.3c.43-.44.88-.84,1.26-1.3-.49-.67-4.31-4.51-5.13-5.18-.28,0-.4.22-.57.37s-.36.42-.67.43v-2.05l1.18-.91a3.19,3.19,0,0,1,.43.34l6.47,6.46c.14.14.26.31.41.48a4.36,4.36,0,0,1-.34.42l-6.92,6.92-1.23-1Z"/>
            <path class="cls-1"
                  d="M0,262.51a3,3,0,0,1,.44.23c.24.19.45.41.7.64a6.47,6.47,0,0,0,1.37-1.23c.44-.42.87-.86,1.3-1.3l1.3-1.3c.43-.43.88-.84,1.26-1.29-.49-.68-4.31-4.52-5.13-5.19-.28,0-.4.23-.57.38s-.36.42-.67.43v-2.06l1.18-.9a2.56,2.56,0,0,1,.43.34q3.24,3.23,6.47,6.46c.14.14.26.3.41.48-.13.17-.23.3-.34.42l-6.92,6.91c-.44-.35-.84-.65-1.23-1Z"/>
            <path class="cls-1"
                  d="M0,33.92a2.3,2.3,0,0,1,.44.23c.24.19.45.41.7.64a6.47,6.47,0,0,0,1.37-1.23c.44-.42.87-.86,1.3-1.3L5.11,31c.43-.43.88-.84,1.26-1.29-.49-.68-4.31-4.52-5.13-5.19-.28,0-.4.23-.57.38s-.36.42-.67.43V23.23l1.18-.91a3.3,3.3,0,0,1,.43.35q3.24,3.22,6.47,6.46c.14.14.26.3.41.48-.13.17-.23.3-.34.42L1.23,36.94,0,36Z"/>
            <path class="cls-1"
                  d="M52.88,286.73a2,2,0,0,1-.19.3c-.72.79-.72.79-1.76.79H49.16l.81-1C49.38,286,36.5,273,30.33,267c-.17-.16-.35-.3-.52-.44-.66.49-19.52,19.32-20.18,20.12,0,.46.57.57.68,1-.13,0-.25.06-.37.07H8.81c-1.3,0-1,.24-2.13-1a3.63,3.63,0,0,1,.34-.46l1.23-1.23,20.57-20.56.9-.89.51.38c.16.14.29.29.44.44l21.44,21.42Z"/>
            <path class="cls-1"
                  d="M66.76,286.81l.84.95a16.76,16.76,0,0,1-2.64,0,.68.68,0,0,1-.35-.19c-.26-.22-.51-.46-.8-.72a7.37,7.37,0,0,1,.48-.6l4-4,17.81-17.8.83-.81c.2.15.37.26.51.39l2,2,19.92,19.9.76.81a1.53,1.53,0,0,1-.2.3c-.92.93-.63.77-1.76.78a10.2,10.2,0,0,1-1.72-.06c.27-.33.5-.62.78-.95a3.45,3.45,0,0,0-.33-.45c-.43-.45-.87-.88-1.3-1.32L87.8,267.33c-.26-.26-.47-.6-.85-.71C86.26,267.16,67.36,286.05,66.76,286.81Z"/>
            <path class="cls-1"
                  d="M144.08,263.71a1.35,1.35,0,0,1,.32.16q11.46,11.36,22.88,22.71a2.49,2.49,0,0,1-.89,1.11.58.58,0,0,1-.38.12h-2.49l.84-1a5,5,0,0,0-.41-.53l-4.72-4.72-14.18-14.16c-.26-.27-.53-.52-.76-.74-.32,0-.44.15-.58.29l-1.81,1.81-17.15,17.14a3.2,3.2,0,0,0-.78.91l.8,1c-.32,0-.55.05-.79.05-.58,0-1.16,0-1.74,0a.85.85,0,0,1-.45-.21c-.25-.22-.48-.48-.73-.74.12-.4.46-.61.72-.87l11.11-11.11,10.4-10.39Z"/>
            <path class="cls-1"
                  d="M224.47,286.72a2,2,0,0,1-2.14,1.11,10.52,10.52,0,0,0-1.49,0c.06-.5.56-.63.67-1a.41.41,0,0,0,0-.12.13.13,0,0,0,0-.09l-19.39-19.41-.52-.49a.66.66,0,0,0-.19-.09l-.09,0-.1,0-19.7,19.67a2.6,2.6,0,0,0-.26.32s0,.07,0,.17l.68.8c-.09.24-.29.16-.43.17a10.63,10.63,0,0,0-1.13,0,1.87,1.87,0,0,1-2-1.05,1.16,1.16,0,0,1,.14-.24l22.76-22.73s.13,0,.24-.07.29.23.44.37Z"/>
            <path class="cls-1"
                  d="M258.55,266.6c-.67.52-19.57,19.38-20.2,20.18l.76,1a3.3,3.3,0,0,1-.42.08,10.63,10.63,0,0,0-1.13,0,2,2,0,0,1-2.12-1c.1-.13.2-.3.33-.44.75-.76,1.5-1.5,2.26-2.25l19.62-19.61c.26-.27.53-.53.83-.82.2.15.36.26.51.39s.44.43.65.65l21.23,21.21c.26.26.51.53.76.8a1.55,1.55,0,0,1-.19.31c-.93.94-.64.76-1.76.78h-1.77c.33-.42.58-.72.81-1C278.09,286,263.51,271.28,259,267A5,5,0,0,0,258.55,266.6Z"/>
            <path class="cls-1"
                  d="M273.72,286.76a2,2,0,0,1-2.11,1.07,9.52,9.52,0,0,0-1.25,0l.81-.92c0-.42-.36-.59-.59-.82l-7.7-7.7-3.64-3.63c-.21-.22-.44-.42-.62-.59h-.17l-.09.05-12.21,12.19a2,2,0,0,0-.26.32s0,.06,0,.16l.69.78c-.15.27-.37.17-.55.19a4.34,4.34,0,0,0-.51,0,1.92,1.92,0,0,1-2.09-1c0-.35.31-.5.51-.7l7.56-7.56,6.24-6.24.78-.75c.16.13.33.24.47.37l14.39,14.38C273.47,286.46,273.57,286.59,273.72,286.76Z"/>
            <path class="cls-1"
                  d="M216.57,286.79l-1.08,1H213.7c-.13,0-.26,0-.49-.07l.77-.88c0-.41-.36-.59-.59-.82l-7.12-7.12-4.14-4.14c-.24-.24-.49-.47-.69-.66h-.17a.19.19,0,0,0-.09.05L189,286.37a2.51,2.51,0,0,0-.26.31s0,.07,0,.17l.69.78c-.1.25-.29.17-.44.19s-.42,0-.62,0a1.86,1.86,0,0,1-2.09-1.05c0-.29.31-.44.51-.64q3.63-3.64,7.27-7.26l6.53-6.54.78-.75c.16.13.33.24.47.37l14.39,14.38C216.28,286.46,216.38,286.59,216.57,286.79Z"/>
            <path class="cls-1"
                  d="M144,271.57l15.29,15.28c-.15.35-.57.6-.9.93H156l.76-.9c0-.35-.24-.49-.42-.67L152,281.85l-7-7.05-.7-.66a.55.55,0,0,0-.17,0,.18.18,0,0,0-.09,0l-12.43,12.41a.91.91,0,0,0-.09.23l.8,1c-.78,0-1.43,0-2.07,0a.8.8,0,0,1-.46-.2c-.27-.24-.52-.52-.78-.78a1.43,1.43,0,0,1,.19-.31Q136.57,279,144,271.57Z"/>
            <path class="cls-1"
                  d="M86.89,271.65c5.07,5.08,10.11,10.1,15.2,15.19-.08.1-.22.28-.37.45s-.35.33-.53.49a18.67,18.67,0,0,1-2.38,0c.32-.38.55-.66.78-.92,0-.35-.24-.49-.42-.68l-4.65-4.65-6.76-6.75c-.24-.24-.49-.47-.69-.66a.56.56,0,0,0-.17,0,.15.15,0,0,0-.09,0L74.38,286.58a1.4,1.4,0,0,0-.1.25l.7.8c-.08.25-.28.18-.42.18a7.36,7.36,0,0,0-.82,0,1.83,1.83,0,0,1-1.92-1C72.33,286.11,85.23,273.14,86.89,271.65Z"/>
            <path class="cls-1"
                  d="M45,286.83c-1.12,1.22-.82,1-2.14,1h-1c-.13-.32.14-.38.24-.53s.26-.31.36-.43a.58.58,0,0,0,0-.16.16.16,0,0,0,0-.09l-12-12.07a4,4,0,0,0-.38-.34.28.28,0,0,0-.12-.06L17.13,286.83c0,.34.57.46.67.95a12.53,12.53,0,0,1-2,0,.82.82,0,0,1-.44-.23c-.25-.22-.48-.48-.76-.76.15-.18.26-.35.4-.49L29.36,272a3.8,3.8,0,0,1,.37-.33C30.42,272.13,44.4,286.1,45,286.83Z"/>
            <path class="cls-1"
                  d="M29.8,281.61a1.72,1.72,0,0,0-.28.17l-4.73,4.72a2.92,2.92,0,0,0-.18.3l.82,1c-.36,0-.6,0-.83,0-1.3,0-1,.23-2.13-1a2.33,2.33,0,0,1,.26-.38l6.76-6.76c.07-.07.17-.12.24-.18.61.44,6.53,6.31,7.32,7.27a2.47,2.47,0,0,1-.79.88.74.74,0,0,1-.46.17,13.22,13.22,0,0,1-1.65,0l.8-1a1.14,1.14,0,0,0-.18-.32q-2.31-2.33-4.65-4.65A2.67,2.67,0,0,0,29.8,281.61Z"/>
            <path class="cls-1"
                  d="M81.78,286.79l.77.89a5.45,5.45,0,0,1-1.83.11,1.11,1.11,0,0,1-.34-.22c-.25-.23-.48-.48-.69-.7a.53.53,0,0,1,0-.15.16.16,0,0,1,0-.09l.27-.31,6.86-6.85a1.46,1.46,0,0,1,.35.2L94,286.43a2,2,0,0,1,.27.34,6.59,6.59,0,0,1-.9,1,7.27,7.27,0,0,1-2,0l.79-.88c0-.09,0-.12,0-.15a.13.13,0,0,0,0-.09c-1.57-1.58-3.13-3.16-4.71-4.74a3,3,0,0,0-.35-.29,1.85,1.85,0,0,0-.33.21L82,286.46A2.9,2.9,0,0,0,81.78,286.79Z"/>
            <path class="cls-1"
                  d="M144.12,279.49c.62.46,6.6,6.4,7.31,7.28a2.88,2.88,0,0,1-.79.88.64.64,0,0,1-.37.15,4.24,4.24,0,0,1-.62,0l-1.13,0,.81-1a1.65,1.65,0,0,0-.18-.32l-4.66-4.66a2.62,2.62,0,0,0-.32-.23,1.72,1.72,0,0,0-.28.17l-4.79,4.81s0,.12-.09.24l.74.87a1.29,1.29,0,0,1-.78.12h-.82a.92.92,0,0,1-.71-.36l-.6-.63a2.63,2.63,0,0,1,.2-.33l6.84-6.83A2.15,2.15,0,0,1,144.12,279.49Z"/>
            <path class="cls-1"
                  d="M206.53,286.8a1.43,1.43,0,0,0-.19-.3l-4.81-4.79a.84.84,0,0,0-.21-.08,1.58,1.58,0,0,0-.24.15q-2.4,2.4-4.79,4.81a.75.75,0,0,0-.09.24l.73.87a1.24,1.24,0,0,1-.77.12h-.82a.89.89,0,0,1-.71-.36l-.61-.64a5.74,5.74,0,0,1,.35-.47l6.54-6.54c.12-.12.26-.22.38-.33.63.46,6.6,6.39,7.33,7.29a2.88,2.88,0,0,1-.79.88.56.56,0,0,1-.37.15c-.54,0-1.09,0-1.76,0Z"/>
            <path class="cls-1"
                  d="M258.55,281.61c-.65.5-4.36,4.18-5.14,5.09,0,.47.54.58.66,1a4.91,4.91,0,0,1-1.76.12.94.94,0,0,1-.35-.2c-.25-.24-.48-.49-.76-.77a3.47,3.47,0,0,1,.3-.4c2.23-2.24,4.46-4.46,6.69-6.69a2.25,2.25,0,0,1,.3-.24c.68.5,6.72,6.53,7.32,7.3a3.51,3.51,0,0,1-.81.87.6.6,0,0,1-.37.14,7.12,7.12,0,0,1-1.71-.05l.8-.95a3.48,3.48,0,0,0-.28-.39q-2.2-2.22-4.43-4.43A3.92,3.92,0,0,0,258.55,281.61Z"/>
            <path class="cls-1"
                  d="M92.49,29.62a.89.89,0,0,1,.14-.25L115.49,6.52c.19.14.36.24.51.36s.34.34.51.51l21.37,21.36.74.76a1,1,0,0,1,0,.18.26.26,0,0,1,0,.09L116.1,52.24a3.84,3.84,0,0,1-.3.28.52.52,0,0,1-.18.1.16.16,0,0,1-.1,0C114.87,52.13,93.05,30.33,92.49,29.62Zm43.25,0a1.28,1.28,0,0,0-.15-.25L115.82,9.6a1.17,1.17,0,0,0-.27-.15,3.17,3.17,0,0,0-.85.74L97.11,27.77c-.46.46-.93.91-1.38,1.38a3.73,3.73,0,0,0-.35.46c.57.73,19.48,19.62,20.19,20.18.12-.1.27-.18.39-.3C118.72,46.91,135.18,30.36,135.74,29.6Z"/>
            <path class="cls-1"
                  d="M195.93,29.61,173.17,52.35a3.89,3.89,0,0,1-.39.32,1.11,1.11,0,0,1-.29-.16L149.68,29.68c0-.34.33-.5.54-.72l8.07-8.06,13.6-13.59.79-.77c.15.08.26.1.32.17C180.62,14.31,188.22,21.91,195.93,29.61Zm-23.2,20.14c.06,0,.1,0,.13,0s.27-.21.39-.33l19.61-19.63a.26.26,0,0,0,0-.09.93.93,0,0,0,0-.18c-.21-.22-.47-.5-.73-.76L178.59,15.16l-5.24-5.23c-.19-.19-.4-.34-.64-.55l-.84.83q-9.24,9.22-18.47,18.46c-.17.16-.35.33-.51.51s-.22.32-.36.52l20,19.92A.71.71,0,0,0,172.73,49.75Z"/>
            <path class="cls-1"
                  d="M229.87,6.52c.78.59,22.6,22.4,23.12,23.08,0,0,0,.06,0,.09a.19.19,0,0,1,0,.09L230.4,52.32a3.88,3.88,0,0,1-.31.26l-.09,0-.1,0c-.68-.54-22.5-22.35-23-23a1.28,1.28,0,0,1,.15-.25Zm.06,2.92a3,3,0,0,0-.84.74L215.71,23.54l-5.37,5.38c-.21.21-.4.45-.6.68a4.45,4.45,0,0,0,.85,1l18,17.94c.31.32.62.63.94.94.14.14.26.33.59.29l.75-.73,14.91-14.89c1.33-1.33,2.67-2.66,4-4a5.65,5.65,0,0,0,.44-.57l-20-19.93A1.22,1.22,0,0,0,229.93,9.44Z"/>
            <path class="cls-1"
                  d="M86.92,206.54c.8.63,22.6,22.42,23.12,23.11a1.66,1.66,0,0,1-.23.31L87.13,252.63a.64.64,0,0,1-.61-.28c-.13-.11-.25-.24-.37-.36L64.48,230.34c-.19-.19-.4-.37-.65-.59.14-.21.24-.37.36-.52s.29-.29.43-.44l21.45-21.43Zm-20.19,23a4.36,4.36,0,0,0,.81.94L85,247.93l1.53,1.53c.14.14.26.33.58.29.23-.21.5-.47.76-.73l14-14,4.87-4.87c.16-.16.28-.36.45-.57l-20-19.93a1.39,1.39,0,0,0-.27-.17,1.64,1.64,0,0,0-.26.16Z"/>
            <path class="cls-1"
                  d="M52.9,229.61a4.3,4.3,0,0,1-.35.42q-11.32,11.34-22.61,22.6a.66.66,0,0,1-.61-.28c-.16-.14-.3-.29-.44-.43L7.44,230.48c-.26-.26-.51-.53-.78-.82a3.05,3.05,0,0,1,.27-.36l22.78-22.76a6.21,6.21,0,0,1,.51.37c.16.13.29.29.44.43l21.45,21.44C52.37,229,52.62,229.31,52.9,229.61ZM29.81,209.48l-.12,0a2.6,2.6,0,0,0-.32.26L9.69,229.46a.26.26,0,0,0,0,.09.79.79,0,0,0,0,.16,3.51,3.51,0,0,0,.72.79l17.15,17.14c.61.61,1.21,1.22,1.82,1.82a5.62,5.62,0,0,0,.49.38l.85-.82,13.89-13.87,5-5c.16-.16.28-.36.45-.57l-20-19.93A1.05,1.05,0,0,0,29.81,209.48Z"/>
            <path class="cls-1"
                  d="M229.89,224.09c-.72-.58-22.52-22.38-23-23a2.07,2.07,0,0,1,.15-.25L229.87,178c.2.14.36.25.51.37s.29.29.44.44q10.73,10.71,21.44,21.43c.27.26.52.53.79.83-.11.14-.17.26-.26.35L230.08,224S230,224.07,229.89,224.09Zm0-43.25q-10,10-19.87,19.87a2,2,0,0,0-.21.28c0,.09,0,.13,0,.15a2.6,2.6,0,0,0,.25.33l19.71,19.67a.25.25,0,0,0,.09,0l.18,0c.23-.22.51-.47.77-.73l8.07-8.07,10.61-10.6a2.12,2.12,0,0,0,.64-.76C249.48,200.25,230.62,181.42,229.87,180.84Z"/>
            <path class="cls-1"
                  d="M195.93,201.05l-22.76,22.74c-.12.12-.26.22-.35.3l-.16,0-.09,0c-.18-.16-.36-.32-.52-.49l-22.38-22.36c.05-.39.34-.55.55-.76q3.63-3.65,7.27-7.27l14.39-14.38.8-.78a2.15,2.15,0,0,1,.32.17Zm-23.25-20.21-20,19.95a1.21,1.21,0,0,0-.15.28,3,3,0,0,0,.74.84L166,214.55q3.06,3.06,6.11,6.1c.21.21.38.5.78.56l.78-.75L184.9,209.2l7.48-7.49c.21-.21.51-.37.54-.7C192.11,200.05,173.39,181.38,172.68,180.84Z"/>
            <path class="cls-1"
                  d="M92.49,201.06a.92.92,0,0,1,.15-.25Q104,189.4,115.49,178c.2.14.36.25.51.37s.29.29.44.44l21.45,21.43c.26.26.51.53.79.83a4.4,4.4,0,0,1-.27.35L115.71,224a.6.6,0,0,1-.19.06C114.79,223.51,93,201.71,92.49,201.06Zm23-20.24-.83.81L96.38,199.94c-.22.22-.44.43-.65.66a4.58,4.58,0,0,0-.35.45c.61.77,19.51,19.65,20.2,20.18.14-.12.31-.23.46-.37,4.41-4.22,19.09-19,19.69-19.8-.56-.78-13.49-13.78-19.62-19.74C115.94,181.16,115.76,181,115.53,180.82Z"/>
            <path class="cls-1"
                  d="M58.33,224.09c-.68-.54-22.5-22.35-23-23a.92.92,0,0,1,.15-.25L58.3,178a6.21,6.21,0,0,1,.51.37c.18.16.34.34.51.5L80.7,200.2c.26.26.51.53.73.76a1.11,1.11,0,0,1,0,.18.41.41,0,0,1,0,.09L58.83,223.76a2.73,2.73,0,0,1-.31.27.25.25,0,0,1-.09,0ZM78.61,201l-20-19.94a1.23,1.23,0,0,0-.24-.14c-.06,0-.1,0-.12,0a4.39,4.39,0,0,0-.4.33L38.28,200.89a.12.12,0,0,0,0,.08.77.77,0,0,0,0,.19A6.76,6.76,0,0,0,39,202L56.4,219.36l1.52,1.52c.15.14.26.33.51.31C59.13,220.63,78,201.75,78.61,201Z"/>
            <path class="cls-1"
                  d="M230,235.05l22.76,22.74a4.1,4.1,0,0,1,.34.42c-.15.18-.28.33-.42.48-5.67,5.83-21.77,21.84-22.71,22.58l-.44-.35-.37-.36-21.66-21.65a8.11,8.11,0,0,0-.68-.55c.18-.25.27-.41.4-.56s.24-.25.36-.37l21.52-21.5C229.31,235.66,229.59,235.41,230,235.05Zm-.06,2.93-.83.82-18.54,18.52c-.14.15-.3.28-.43.44s-.23.32-.37.52q10,10,19.88,19.85a1.71,1.71,0,0,0,.29.22.38.38,0,0,0,.15,0,1.37,1.37,0,0,0,.24-.18L250,258.37a.16.16,0,0,0,.05-.09.31.31,0,0,0,0-.1C249.63,257.56,230.81,238.73,229.89,238Z"/>
            <path class="cls-1"
                  d="M258.55,149.33l22.75,22.74a5.26,5.26,0,0,1,.35.41c-.16.19-.28.34-.42.49-5.57,5.72-21.78,21.84-22.71,22.57-.14-.11-.3-.22-.45-.35a4.08,4.08,0,0,1-.36-.36l-21.6-21.57c-.22-.22-.47-.4-.74-.63.17-.24.27-.41.39-.55a4.57,4.57,0,0,1,.44-.44q10.71-10.72,21.44-21.43Zm20.2,23.1-20-20a.93.93,0,0,0-.26-.15,2.73,2.73,0,0,0-.85.73l-14.39,14.39-4.44,4.43c-.18.19-.34.4-.55.66.3.3.55.57.82.83l18.53,18.52.44.44c.15.13.26.32.51.29C259.4,192,278.22,173.12,278.75,172.43Z"/>
            <path class="cls-1"
                  d="M201.37,195.54a1.5,1.5,0,0,1-.29-.16l-22.83-22.67a1.34,1.34,0,0,1,.57-.88l7.92-7.92,13.74-13.73.79-.77a1.62,1.62,0,0,1,.33.17l22.87,22.84a4.35,4.35,0,0,1-.39.5l-1.45,1.46-20.36,20.34A5.42,5.42,0,0,1,201.37,195.54Zm0-2.79.91-.88L216,178.14c1.72-1.72,3.44-3.43,5.16-5.16.15-.16.28-.35.44-.56l-20-19.94a1.05,1.05,0,0,0-.24-.15c-.06,0-.1,0-.12,0a2,2,0,0,0-.32.25l-19.68,19.7a.12.12,0,0,0,0,.09.87.87,0,0,0,0,.17,2.34,2.34,0,0,0,.27.34Z"/>
            <path class="cls-1"
                  d="M58.41,63.72a1.91,1.91,0,0,1,.3.22Q70.1,75.3,81.49,86.69a3,3,0,0,1-.75.88L70.63,97.67q-5.7,5.7-11.41,11.41a3.68,3.68,0,0,1-.86.75c-.12-.09-.24-.16-.34-.25L35.3,86.88a1.09,1.09,0,0,1,0-.17.25.25,0,0,1,0-.09L57.81,64.16l.38-.35A1,1,0,0,1,58.41,63.72Zm-.07,2.81-.83.81L39,85.79c-.17.17-.34.33-.5.51s-.24.32-.35.46c.63.79,19.52,19.66,20.2,20.17a5.19,5.19,0,0,0,.46-.36c4.52-4.33,19.1-19,19.69-19.81-.6-.82-15-15.33-19.69-19.81C58.71,66.81,58.54,66.7,58.34,66.53Z"/>
            <path class="cls-1"
                  d="M115.6,109.81,92.51,86.74a2.94,2.94,0,0,1,.29-.4l3.13-3.12,18.76-18.75.84-.82c.24.21.45.37.64.56,1.51,1.49,3,3,4.51,4.5l17.16,17.14.84.85c-.14.18-.24.34-.37.49s-.29.29-.43.43L116.5,109A5.44,5.44,0,0,1,115.6,109.81Zm0-2.9a1.09,1.09,0,0,0,.21-.09l.45-.42q9.74-9.75,19.46-19.49a.11.11,0,0,0,.05-.09.58.58,0,0,0,0-.17l-.74-.77-15.05-15Q118,68.92,116.08,67a6.86,6.86,0,0,0-.56-.45l-.85.82L96.21,85.82c-.17.17-.35.33-.51.51s-.22.32-.35.52l20,19.92A1,1,0,0,0,115.55,106.91Z"/>
            <path class="cls-1"
                  d="M149.57,86.77l23.09-23.08c.16.07.27.09.33.16l22.88,22.84c-.14.19-.24.35-.37.5s-.29.29-.44.44L173.69,109a5.31,5.31,0,0,1-.86.8h-.16l-.09,0a4.14,4.14,0,0,1-.38-.35ZM172.75,66.6a3.07,3.07,0,0,0-.86.74L154.74,84.48c-.61.6-1.22,1.21-1.82,1.82a4.58,4.58,0,0,0-.35.45c.55.71,19.45,19.61,20.19,20.18a3.27,3.27,0,0,0,.39-.29c2.62-2.45,19.22-19.14,19.78-19.89a1.28,1.28,0,0,0-.15-.25L173,66.75A1.1,1.1,0,0,0,172.75,66.6Z"/>
            <path class="cls-1"
                  d="M229.86,63.7,253,86.8c-.05.07-.15.23-.27.38s-.29.29-.44.44L230.89,109l-.91.89a5,5,0,0,1-.51-.41c-.3-.28-.58-.58-.88-.86q-10.46-10.47-20.94-20.93c-.26-.26-.57-.49-.89-.76a6.19,6.19,0,0,1,.42-.56c.45-.47.91-.93,1.37-1.39Q218.78,74.76,229,64.55Zm20.26,23a1.28,1.28,0,0,0-.15-.25L230.2,66.74a1.92,1.92,0,0,0-.29-.15,3.94,3.94,0,0,0-.83.75l-17.3,17.28c-.56.56-1.12,1.11-1.67,1.68a4.58,4.58,0,0,0-.35.45c.55.72,19.46,19.61,20.19,20.18a3.2,3.2,0,0,0,.38-.29C233,104.16,249.56,87.5,250.12,86.75Z"/>
            <path class="cls-1"
                  d="M35.19,144.06c.59-.77,22.39-22.57,23.18-23.21a3.73,3.73,0,0,1,.46.35l2.91,2.91L80.64,143l.84.85c-.12.17-.22.34-.35.49s-.29.29-.43.43L59.32,166.12c-.28.29-.58.57-.91.9-.2-.16-.36-.28-.5-.41s-.25-.24-.37-.36L35.87,144.61A5.79,5.79,0,0,0,35.19,144.06Zm23.16-20.33a4.34,4.34,0,0,0-.84.76L39.78,142.21l-1.24,1.24c-.13.14-.24.31-.35.45.58.74,19.48,19.63,20.19,20.18a3.58,3.58,0,0,0,.39-.29c2.78-2.61,19.22-19.14,19.78-19.89a.92.92,0,0,0-.15-.25q-9.87-9.89-19.77-19.76A1.21,1.21,0,0,0,58.35,123.73Z"/>
            <path class="cls-1"
                  d="M115.55,167a2.5,2.5,0,0,1-.34-.24L92.45,144a2.51,2.51,0,0,1,.74-.89l16.65-16.64,4.94-4.93c.24-.24.49-.47.75-.71a2.09,2.09,0,0,1,.37.27q11.38,11.35,22.77,22.74a2.73,2.73,0,0,1-.74.89l-10.11,10.1-11.41,11.4A3.44,3.44,0,0,1,115.55,167ZM95.38,143.91c.64.8,19.53,19.66,20.2,20.17a5.32,5.32,0,0,0,.46-.37c4.6-4.41,19.1-19,19.69-19.81-.6-.82-15.09-15.39-19.69-19.8a5,5,0,0,0-.46-.37C114.89,124.26,96,143.15,95.38,143.91Z"/>
            <path class="cls-1"
                  d="M149.64,143.93c.69-.84,22.49-22.6,23.11-23.06a.77.77,0,0,1,.25.14c7.62,7.59,15.22,15.2,22.88,22.84a4.41,4.41,0,0,1-.39.49c-.62.64-1.26,1.27-1.89,1.9l-19.92,19.9a4.73,4.73,0,0,1-.91.82,1.77,1.77,0,0,1-.28-.15Zm43.35-.09L173,123.9a1.38,1.38,0,0,0-.27-.16,3,3,0,0,0-.85.73l-13,13-5.74,5.73c-.21.22-.4.45-.6.68a4.73,4.73,0,0,0,.85,1l17.81,17.8,1.09,1.09c.15.14.26.32.5.3C173.52,163.46,192.4,144.59,193,143.84Z"/>
            <path class="cls-1"
                  d="M6.7,115.34a2.07,2.07,0,0,1,.15-.25L29.71,92.24c.19.14.36.24.51.37s.29.29.44.43L52.1,114.47c.27.27.52.54.74.77,0,.11,0,.15,0,.18a.47.47,0,0,1-.06.09L30.24,138l-.31.27-.1,0-.1,0C29,137.81,7.22,116,6.7,115.34Zm23.08,20.17a3.58,3.58,0,0,0,.39-.29c2.56-2.39,19.23-19.15,19.79-19.89a1.28,1.28,0,0,0-.15-.25L30,95.32a1.21,1.21,0,0,0-.28-.16,4.3,4.3,0,0,0-.84.75L12.49,112.32,10,114.87a4.58,4.58,0,0,0-.35.45C10.14,116,29,134.92,29.78,135.51Z"/>
            <path class="cls-1"
                  d="M86.89,92.26,110,115.37c-.06.08-.16.24-.29.39s-.34.34-.51.51l-21.3,21.28a5.3,5.3,0,0,1-1,.86l-.47-.38c-.15-.13-.29-.29-.44-.43L64.68,116.24c-.27-.26-.56-.51-.87-.79a6.52,6.52,0,0,1,.4-.53c.84-.86,1.69-1.7,2.54-2.55Q76.43,102.71,86.09,93Zm-20.16,23a4.53,4.53,0,0,0,.81.93L84.7,133.35l1.82,1.81c.14.13.3.24.49.39.31-.31.59-.56.85-.83l13.89-13.87,5-5c.16-.16.28-.35.45-.56l-20-19.94a1.38,1.38,0,0,0-.27-.16,1.1,1.1,0,0,0-.26.15Z"/>
            <path class="cls-1"
                  d="M121,115.36a3,3,0,0,1,.28-.35l22.78-22.77a4.83,4.83,0,0,1,.51.38,5.93,5.93,0,0,1,.44.43l21.45,21.43c.26.26.51.54.79.84-.14.17-.24.31-.35.42l-22.62,22.6a.64.64,0,0,1-.61-.29l-1.31-1.3-20.58-20.57C121.55,115.92,121.3,115.65,121,115.36Zm2.89-.09a4.25,4.25,0,0,0,.81.93l16.57,16.56,2.4,2.4c.14.13.31.24.5.39l.84-.82,13.31-13.29,5.52-5.53c.18-.18.46-.32.45-.71L144.51,95.4a3.81,3.81,0,0,0-.32-.24,1.11,1.11,0,0,0-.29.16Z"/>
            <path class="cls-1"
                  d="M201.27,138.44l-22.78-22.77c-.09-.09-.16-.2-.26-.32a3.93,3.93,0,0,1,.27-.35l22.78-22.76a4.83,4.83,0,0,1,.51.38,6,6,0,0,1,.44.43l21.45,21.43.79.84c-.17.2-.29.35-.43.5C218.64,121.37,202.27,137.65,201.27,138.44Zm20.25-23.11a.89.89,0,0,0-.14-.25q-9.88-9.89-19.78-19.76a.93.93,0,0,0-.26-.15,2.89,2.89,0,0,0-.85.74l-16.58,16.56-2.39,2.4a4.73,4.73,0,0,0-.36.45c.55.71,19.45,19.61,20.19,20.19.12-.09.27-.18.39-.29C204.31,132.81,221,116.07,221.52,115.33Z"/>
            <path class="cls-1"
                  d="M281.65,115.3a3.35,3.35,0,0,1-.27.36L258.7,138.33c-.36,0-.47-.14-.62-.27l-.44-.44L236.2,116.19c-.27-.26-.52-.54-.77-.8a1.46,1.46,0,0,1,.18-.3l22.85-22.85c.2.14.37.25.51.37s.3.29.44.43l21.45,21.44Zm-43.36.09,20,20a1.19,1.19,0,0,0,.25.13,1.29,1.29,0,0,0,.2-.09,6,6,0,0,0,.45-.42l19.47-19.48a.41.41,0,0,0,.05-.09,1,1,0,0,0,0-.18l-.74-.76L262.33,98.84l-3.28-3.27a6.54,6.54,0,0,0-.58-.46L238.6,115A4.61,4.61,0,0,0,238.29,115.39Z"/>
            <path class="cls-1"
                  d="M229.91,166.94c-.61-.46-22.37-22.18-23-23,0,0,0-.07,0-.11a.36.36,0,0,1,0-.09l22.68-22.67a1.6,1.6,0,0,1,.25-.18s.06,0,.16,0,.28.22.42.36q11.3,11.3,22.55,22.53a.82.82,0,0,1,0,.21.2.2,0,0,1,0,.09l-22.67,22.67a1.6,1.6,0,0,1-.25.18Zm0-43.26-.83.81-18.46,18.45c-.17.17-.35.33-.51.51a4.52,4.52,0,0,0-.34.46c.62.78,19.52,19.65,20.2,20.17.14-.12.31-.23.45-.37,4.51-4.31,19.1-19,19.69-19.8-.59-.82-15-15.33-19.69-19.81A5,5,0,0,0,229.9,123.68Z"/>
            <path class="cls-1"
                  d="M167.28,172.46a4.5,4.5,0,0,1-.36.43c-3.62,3.78-21.89,22-22.72,22.61-.24,0-.36-.17-.5-.3l-.44-.44-21.45-21.43c-.26-.26-.51-.53-.78-.82.12-.15.18-.26.28-.36l22.78-22.77c.2.15.37.26.51.39a4.47,4.47,0,0,1,.44.43l21.45,21.43C166.75,171.89,167,172.17,167.28,172.46Zm-2.89,0-20-19.94a1.05,1.05,0,0,0-.24-.15c-.06,0-.1,0-.12,0a3.12,3.12,0,0,0-.4.32l-19.6,19.63a.2.2,0,0,0,0,.09.79.79,0,0,0,0,.16,3.26,3.26,0,0,0,.71.79l17.45,17.44c.51.5,1,1,1.53,1.52.14.14.26.33.5.3C144.91,192.05,163.8,173.18,164.39,172.42Z"/>
            <path class="cls-1"
                  d="M86.93,195.51c-.65-.5-22.47-22.3-23-23a1.28,1.28,0,0,1,.15-.25l22.85-22.85c.2.14.36.24.51.36a6.09,6.09,0,0,1,.44.44l21.45,21.43c.26.26.51.53.73.76,0,.11,0,.15,0,.18a.26.26,0,0,1-.05.09L87.5,195.11a3.83,3.83,0,0,1-.29.28.64.64,0,0,1-.18.1A.18.18,0,0,1,86.93,195.51Zm0-2.88c.08,0,.12,0,.14,0a1.6,1.6,0,0,0,.25-.18l19.76-19.77a.19.19,0,0,0,.05-.09,1,1,0,0,0,0-.18c-.22-.22-.47-.5-.73-.76L95,160.21,87.72,153c-.24-.23-.42-.54-.85-.64l-.78.76L67.55,171.6a6,6,0,0,0-.43.44,6.21,6.21,0,0,0-.37.51q10,10,19.87,19.86A3.72,3.72,0,0,0,86.92,192.63Z"/>
            <path class="cls-1"
                  d="M29.86,149.45c.12.1.28.23.42.37,5,4.85,21.85,21.75,22.55,22.63a.34.34,0,0,1,0,.1.16.16,0,0,1,0,.09L30.1,195.32a1.1,1.1,0,0,1-.25.17s-.06,0-.1,0c-.61-.46-22.37-22.18-23-23,0,0,0-.07,0-.1a.16.16,0,0,1,0-.09l22.67-22.68a1.6,1.6,0,0,1,.25-.18Zm-20.31,23a4.37,4.37,0,0,0,.89,1q9.18,9.19,18.39,18.38c.17.17.33.34.51.51s.26.32.58.28c.22-.22.5-.47.76-.74L46,176.54l3.63-3.64a3.27,3.27,0,0,0,.36-.49q-10-10-20-19.94a1,1,0,0,0-.28-.16,2.62,2.62,0,0,0-.32.23Z"/>
            <path class="cls-1"
                  d="M81.49,29.55c-.64.82-22.45,22.6-23.09,23.08h-.11a.2.2,0,0,1-.09-.05c-.12-.11-.26-.22-.38-.34L35.25,29.68a3.92,3.92,0,0,1,.37-.49l3.27-3.27L57.5,7.32l.8-.78a1.35,1.35,0,0,1,.32.16Zm-43.29.08a2.93,2.93,0,0,0,.74.83L49.69,41.22q4,4,7.93,7.91a1.85,1.85,0,0,0,.83.66l.8-.77,9.89-9.88,8.79-8.79c.23-.24.54-.43.65-.81l-.79-.82-18-17.94c-.34-.34-.67-.68-1-1a4.86,4.86,0,0,0-.51-.37L38.36,29.34A1.3,1.3,0,0,0,38.2,29.63Z"/>
            <path class="cls-1"
                  d="M172.74,281.37,150,258.62l-.34-.39a3.1,3.1,0,0,1,.27-.35q11.37-11.38,22.79-22.77c.19.14.36.25.51.38s.29.29.44.43l21.44,21.43c.26.26.51.54.8.84-.15.17-.24.31-.36.42Zm-20.2-23.25a3,3,0,0,0,.79.95l11.34,11.34,7.34,7.33a1.82,1.82,0,0,0,.82.64l.82-.79,15-15,3.85-3.85c.15-.16.28-.36.44-.57L173,238.2a1.11,1.11,0,0,0-.29-.17,2.62,2.62,0,0,0-.32.23Z"/>
            <path class="cls-1"
                  d="M92.41,258.31c.57-.74,22.4-22.56,23.15-23.17a5.52,5.52,0,0,1,.53.43l3.93,3.92,17.82,17.8.83.85c-.13.17-.23.34-.35.49s-.29.29-.44.43l-21.37,21.36a5.05,5.05,0,0,1-1,.86c-.16-.13-.32-.24-.46-.37l-.73-.73L93.28,259.11C93,258.85,92.72,258.6,92.41,258.31Zm2.92-.18a4.28,4.28,0,0,0,.88,1q8.46,8.48,16.94,16.93l2,2c.14.13.31.24.49.39.32-.31.59-.56.85-.83l13.74-13.72,5.16-5.16a7.09,7.09,0,0,0,.45-.57l-20-19.94a1.38,1.38,0,0,0-.27-.16.93.93,0,0,0-.26.15Z"/>
            <path class="cls-1"
                  d="M35.25,258.23a4.4,4.4,0,0,1,.27-.35l22.79-22.77c.19.14.36.25.51.37l.44.44L80.7,257.35c.26.26.51.54.8.83-.14.18-.24.31-.35.43l-22.62,22.6a.64.64,0,0,1-.61-.29c-.18-.16-.34-.33-.51-.5L36,259.06Zm3,0a3.9,3.9,0,0,0,.74.83Q44.85,265,50.79,270.9l6.9,6.9c.21.21.38.49.78.56l.78-.75,10.91-10.9q3.93-3.91,7.85-7.85c.2-.21.5-.37.54-.76l-.77-.79L59.32,238.86c-.17-.17-.33-.35-.51-.5s-.32-.23-.51-.37L38.36,257.94A1,1,0,0,0,38.2,258.23Z"/>
            <path class="cls-1"
                  d="M281.66,229.61c-.14.17-.24.31-.36.43l-22.61,22.59a.66.66,0,0,1-.61-.28l-.44-.44-21.45-21.43c-.26-.26-.51-.53-.78-.82.11-.15.18-.26.27-.36l22.79-22.76c.19.14.36.24.51.37s.29.29.43.43l21.45,21.44Zm-43.31,0c.59.75,19.5,19.64,20.19,20.18a3.58,3.58,0,0,0,.39-.29c2.86-2.68,19.22-19.13,19.78-19.89a1.28,1.28,0,0,0-.15-.25l-19.77-19.76a.94.94,0,0,0-.26-.14C257.89,210,239,228.8,238.35,229.62Z"/>
            <path class="cls-1"
                  d="M29.76,81.21c-.61-.44-22.3-22.08-23-23,0,0,0-.07,0-.1a.25.25,0,0,1,0-.09l22.6-22.61a3.92,3.92,0,0,1,.32-.25s.06,0,.16,0,.23.18.35.29L52.83,58.05v.2a.26.26,0,0,1,0,.09L30.18,81a3.81,3.81,0,0,1-.32.24A.18.18,0,0,1,29.76,81.21Zm0-2.85A2.35,2.35,0,0,0,30,78.2L49.81,58.44a1.28,1.28,0,0,0,.15-.25c-.57-.75-17.08-17.36-19.79-19.89a3.59,3.59,0,0,0-.44-.33c-.29.28-.56.54-.82.81L10.37,57.3a4.47,4.47,0,0,0-.43.44,5,5,0,0,0-.38.52L29.36,78A4.16,4.16,0,0,0,29.75,78.36Z"/>
            <path class="cls-1"
                  d="M110.07,58.13c-.56.74-22.37,22.54-23.13,23.12-.14-.11-.3-.23-.44-.36s-.29-.29-.44-.43L64.68,59.1c-.26-.26-.56-.49-.88-.77a4.7,4.7,0,0,1,.4-.55c.31-.33.63-.64,1-1L86,36l.91-.89a4.61,4.61,0,0,1,.5.39c.93.91,1.85,1.84,2.77,2.76l19,19ZM87,38c-.06,0-.1,0-.12,0s-.27.21-.39.33Q76.68,48.2,66.88,58a.19.19,0,0,0,0,.09.76.76,0,0,0,0,.16,3.22,3.22,0,0,0,.71.78l17.3,17.3L86.52,78c.14.14.26.33.58.3.23-.22.5-.47.76-.73l14-14,4.87-4.87c.16-.16.28-.36.45-.57l-20-19.94A1,1,0,0,0,87,38Z"/>
            <path class="cls-1"
                  d="M167.28,58.12c-.69.87-22.47,22.61-23.11,23.09h-.1l-.09,0-.38-.35L121,58.25a6.84,6.84,0,0,1,.44-.56c1.33-1.33,2.67-2.66,4-4q8.91-8.89,17.81-17.8l.8-.77a1.35,1.35,0,0,1,.32.16ZM144.12,38l-.83.81L124.75,57.29c-.15.15-.3.29-.43.44s-.24.32-.35.46c.69.85,19.55,19.68,20.17,20.14a.54.54,0,0,0,.19-.07l19.86-19.82a1,1,0,0,0,.14-.24c-.62-.84-15.27-15.58-19.7-19.83Z"/>
            <path class="cls-1"
                  d="M201.41,35l23,23.14a4.57,4.57,0,0,1-.35.48,6,6,0,0,1-.43.44L202.22,80.47c-.26.27-.54.52-.85.82-.19-.15-.35-.27-.49-.4a6,6,0,0,1-.44-.43L179.06,59.1c-.27-.26-.57-.49-.89-.77a4.87,4.87,0,0,1,.41-.55c.31-.33.63-.64.94-1L200.39,36ZM221.63,58.2l-.86-.89L204.63,41.18l-2.84-2.83a5.21,5.21,0,0,0-.49-.37c-.28.27-.54.5-.78.74l-18.61,18.6c-.14.15-.3.28-.43.44s-.22.32-.33.49l.53.56,19.49,19.46.1,0,.14,0a2.47,2.47,0,0,0,.29-.22Z"/>
            <path class="cls-1"
                  d="M235.35,58.19l23.1-23.08a1.62,1.62,0,0,1,.33.17l22.87,22.84c-.14.19-.24.35-.37.5s-.34.34-.51.51l-21.3,21.28a5.31,5.31,0,0,1-.86.8h-.16a.25.25,0,0,1-.09,0l-.38-.35Zm23.16,20.26c.36-.34.63-.59.9-.86l9.09-9.08,9.59-9.59a2,2,0,0,0,.65-.81L278,57.3,260.28,39.65c-.43-.44-.86-.88-1.31-1.31a4.86,4.86,0,0,0-.51-.37L238.59,57.84a2.62,2.62,0,0,0-.23.32,1.11,1.11,0,0,0,.16.29Z"/>
            <path class="cls-1"
                  d="M178.22,229.66a3.27,3.27,0,0,1,.28-.36l22.78-22.77c.2.15.37.26.51.38a6.09,6.09,0,0,1,.44.44l21.45,21.43c.26.26.51.54.79.84-.17.19-.29.35-.43.49-5.38,5.54-21.77,21.84-22.66,22.54-.23,0-.35-.17-.5-.31a5.81,5.81,0,0,1-.43-.43L179,230.48C178.74,230.22,178.49,229.94,178.22,229.66Zm43.29,0c-.56-.78-13.49-13.78-19.62-19.74-.16-.16-.35-.3-.58-.49l-.83.81-18.17,18.16-.8.8a5.07,5.07,0,0,0-.35.46c.62.78,19.52,19.65,20.2,20.17a5.19,5.19,0,0,0,.46-.36C206.28,245.16,220.91,230.44,221.51,229.63Z"/>
            <path class="cls-1"
                  d="M121,229.63l23.1-23.08a1.45,1.45,0,0,1,.34.18l22.87,22.84a5.62,5.62,0,0,1-.38.49l-1,1-20.79,20.78a5,5,0,0,1-.87.8l-.15,0a.19.19,0,0,1-.1,0l-.52-.49Zm23.14,20.15c.08,0,.12,0,.14,0a1.6,1.6,0,0,0,.25-.18l19.76-19.77a.26.26,0,0,0,.05-.09,1.11,1.11,0,0,0,0-.18c-.22-.23-.47-.5-.74-.76Q157.79,223,152,217.14l-7.05-7c-.24-.24-.42-.55-.85-.64l-.78.76-18.54,18.53a6,6,0,0,0-.43.44,4.86,4.86,0,0,0-.37.51q10,10,19.87,19.86A3.72,3.72,0,0,0,144.11,249.78Z"/>
            <path class="cls-1"
                  d="M115.5,44.73c-.92-.79-14.59-14.48-15.07-15.1a.38.38,0,0,1,0-.1.22.22,0,0,1,0-.08L115,14.91a6.1,6.1,0,0,1,.46-.41s.06,0,.09,0c.7.54,12.87,12.61,14.94,14.82a1.77,1.77,0,0,1,.19.26ZM102.9,29.61s0,.07,0,.1.26.31.41.46l12.08,12a.13.13,0,0,0,.09,0s.06,0,.2,0L128,30c.09-.1.15-.22.26-.36-.17-.2-.31-.39-.47-.55L116,17.28a5.19,5.19,0,0,0-.46-.36C114.38,17.92,103.35,29,102.9,29.61Z"/>
            <path class="cls-1"
                  d="M172.78,44.75c-.59-.42-8.38-8.13-14.67-14.52-.19-.19-.36-.39-.53-.58.51-.68,13.83-14,15.15-15.21.14.12.31.22.45.36l14.39,14.38c.12.12.22.25.31.35s0,.12,0,.15a.41.41,0,0,1,0,.09L173,44.59A1.67,1.67,0,0,1,172.78,44.75Zm0-27.85a5.26,5.26,0,0,0-.41.35l-12,12a2.55,2.55,0,0,0-.29.38c.74.87,12.07,12.17,12.72,12.67a5.32,5.32,0,0,0,.45-.38c.47-.46.92-.92,1.38-1.38l10.11-10.1a2.65,2.65,0,0,0,.7-.83c-.68-.85-8-8.24-12.19-12.29C173.08,17.18,172.92,17.05,172.74,16.9Z"/>
            <path class="cls-1"
                  d="M214.74,29.63c.86-1,14.58-14.68,15.19-15.15.82.63,10.91,10.63,14.87,14.74.11.12.21.25.31.37-.52.66-14.28,14.44-15.12,15.15-.24,0-.35-.18-.49-.32l-14.32-14.3C215,30,214.91,29.82,214.74,29.63Zm15.17-12.71a3.43,3.43,0,0,0-.33.27L217.51,29.25a2.46,2.46,0,0,0-.28.41l.38.41L229.76,42.2l.09,0,.16,0c.22-.2.47-.43.71-.67l3.71-3.7L242,30.34c.23-.23.57-.41.6-.87L230.25,17.16A2.08,2.08,0,0,0,229.91,16.92Z"/>
            <path class="cls-1"
                  d="M86.89,214.5l15.21,15.2c0,.05-.13.19-.24.3L87.4,244.46l-.36.3H86.9a.19.19,0,0,1-.09-.05L72.12,230a2.6,2.6,0,0,1-.26-.32.13.13,0,0,1,0-.09C72.32,229,85.29,215.93,86.89,214.5Zm12.78,15.05L87.28,217.17c-.1-.09-.22-.15-.34-.24-.13.11-.24.18-.34.28L74.54,229.27a1.74,1.74,0,0,0-.28.41l.45.49,12.08,12a.18.18,0,0,0,.09.06H87C87.68,241.74,99.09,230.32,99.67,229.55Z"/>
            <path class="cls-1"
                  d="M45,229.62c-.53.66-14.34,14.48-15.17,15.18a3.37,3.37,0,0,1-.37-.29L15,230.06c-.12-.12-.22-.25-.3-.34a.76.76,0,0,1,0-.16.19.19,0,0,1,0-.09l.57-.6,14.32-14.29a.61.61,0,0,1,.18-.09c.82.63,11.26,11,14.87,14.75C44.75,229.36,44.85,229.5,45,229.62Zm-2.46.07C42,229.06,30.31,217.33,29.86,217c0,0-.12,0-.19,0a1,1,0,0,0-.16.12L17.37,229.25a3.2,3.2,0,0,0-.29.38c.71.85,12.06,12.17,12.71,12.68a3.79,3.79,0,0,0,.39-.31Z"/>
            <path class="cls-1"
                  d="M245.07,201.06c-.57.76-8.83,9.09-14.6,14.71-.16.17-.35.31-.62.54L214.7,201.14c.18-.23.29-.39.42-.53l14.39-14.38c.12-.12.25-.23.37-.33C230.57,186.4,244.56,200.38,245.07,201.06Zm-15.14-12.72a5.26,5.26,0,0,0-.41.35l-12,12a2.55,2.55,0,0,0-.29.38c.69.83,12.06,12.17,12.71,12.68.13-.1.26-.2.38-.31.32-.31.64-.63.95-1q5.31-5.29,10.61-10.61a2.52,2.52,0,0,0,.71-.82c-.67-.85-7.88-8.12-12.19-12.29C230.27,188.62,230.11,188.5,229.93,188.34Z"/>
            <path class="cls-1"
                  d="M172.75,185.92c.71.55,12.78,12.52,14.94,14.82a2.11,2.11,0,0,1,.18.26l-15.18,15.18a2.24,2.24,0,0,1-.31-.25l-14.46-14.45a3,3,0,0,1-.3-.35.71.71,0,0,1,0-.15.24.24,0,0,1,.06-.09l14.44-14.46c.15-.15.29-.29.45-.43A1,1,0,0,1,172.75,185.92Zm0,27.83.73-.68,11.19-11.19a2.56,2.56,0,0,0,.71-.83c-.61-.78-6.69-6.91-12.11-12.22-.17-.16-.35-.31-.56-.49-.15.13-.29.23-.41.35l-12,12c-.11.12-.2.26-.29.38C160.71,201.85,172.1,213.21,172.78,213.75Z"/>
            <path class="cls-1"
                  d="M115.57,216.25c-1.41-1.25-14.67-14.56-15.14-15.19.48-.66,13.45-13.7,15.09-15.16a2.29,2.29,0,0,1,.82.7l13.74,13.72.68.71a4.64,4.64,0,0,1-.31.4L116,215.88C115.87,216,115.74,216.1,115.57,216.25Zm0-2.51c.23-.21.46-.41.67-.62q1.76-1.74,3.49-3.49,3.93-3.91,7.85-7.84c.24-.24.56-.41.61-.87L115.87,188.6a2.5,2.5,0,0,0-.34-.24l-.33.27-12.07,12.06a2.46,2.46,0,0,0-.24.35Z"/>
            <path class="cls-1"
                  d="M43.2,201c1.18-1.34,14.55-14.64,15.18-15.11C59,186.41,72.63,200,73.5,201c0,.25-.16.35-.3.49q-7.19,7.2-14.39,14.38c-.12.12-.25.22-.35.31h-.14a.13.13,0,0,1-.09-.05q-7.42-7.4-14.84-14.8A1.76,1.76,0,0,1,43.2,201Zm15.16-12.69a5,5,0,0,0-.4.35l-12,12c-.11.12-.2.26-.29.38.66.79,12,12.16,12.71,12.69a5.45,5.45,0,0,0,.46-.38l11.85-11.85a3.55,3.55,0,0,0,.35-.44c-.62-.8-6.7-6.93-12.12-12.23A7.26,7.26,0,0,0,58.36,188.34Z"/>
            <path class="cls-1"
                  d="M230,273.39c-1.38-1.21-14.67-14.55-15.16-15.2a2.07,2.07,0,0,1,.15-.25c5-5,9.94-9.91,14.93-14.9a2.35,2.35,0,0,1,.85.71q6.66,6.63,13.3,13.28l1.13,1.13a3.93,3.93,0,0,1-.32.41L230.37,273C230.25,273.15,230.12,273.25,230,273.39Zm12.73-15.15c-.24-.27-.38-.45-.55-.62l-11.7-11.7c-.16-.15-.36-.27-.56-.43l-1.43,1.42L227,248.36l-1.38,1.38-1.38,1.38-1.46,1.46L221.39,254,220,255.34l-1.45,1.45a15.68,15.68,0,0,0-1.33,1.38c.54.68,11.89,12.05,12.69,12.71a2.37,2.37,0,0,0,.33-.22Z"/>
            <path class="cls-1"
                  d="M258.56,187.62c-.73-.53-9-8.68-14.74-14.59-.16-.17-.31-.35-.45-.51.51-.68,13.82-14,15.14-15.21a5.07,5.07,0,0,1,.45.36l14.39,14.38c.12.12.23.25.31.34a.49.49,0,0,1,0,.16.41.41,0,0,1-.05.09L258.8,187.46A1.25,1.25,0,0,1,258.56,187.62Zm0-2.44.74-.71,5-5c2.11-2.11,4.22-4.21,6.32-6.33.21-.2.52-.36.51-.8L258.84,160a2.24,2.24,0,0,0-.34-.23c-.12.1-.24.18-.33.27L246.1,172.12a3.19,3.19,0,0,0-.24.35Z"/>
            <path class="cls-1"
                  d="M201.28,157.35l15.2,15.19c0-.06,0,0,0,0a.13.13,0,0,1,0,.09q-7.4,7.43-14.81,14.83a1.67,1.67,0,0,1-.26.17,1.1,1.1,0,0,1-.26-.15l-14.82-14.82s0-.12-.07-.19C186.69,171.83,199.89,158.58,201.28,157.35Zm0,2.43c-.14.13-.28.24-.4.36L189,172.05a4.57,4.57,0,0,0-.35.48l.53.56,12,12,.09.05h.16c.21-.2.47-.42.71-.66l4.8-4.8c2.18-2.18,4.36-4.35,6.53-6.54.21-.21.52-.36.51-.8L201.65,160A2.65,2.65,0,0,0,201.3,159.78Z"/>
            <path class="cls-1"
                  d="M43.24,86.76C43.72,86.1,56.75,73,58.33,71.61a2.49,2.49,0,0,1,.83.69L72.89,86c.22.21.43.44.68.71a4.43,4.43,0,0,1-.31.39L58.8,101.59a4.07,4.07,0,0,1-.35.3H58.3l-.09,0L43.52,87.17l-.26-.31S43.25,86.79,43.24,86.76ZM58.3,74,45.85,86.5a1.48,1.48,0,0,0-.17.29c.11.13.2.27.32.39l12,12a.47.47,0,0,0,.52.22L70.81,87.09a2.93,2.93,0,0,0,.25-.35c-.13-.15-.22-.29-.33-.41C68.34,83.82,59.12,74.69,58.3,74Z"/>
            <path class="cls-1"
                  d="M100.4,86.86c5.11-5.12,10.15-10.15,15.22-15.22.08.07.25.19.39.33,4.23,4.08,14.06,14,14.69,14.78,0,0,0,.07,0,.1a.41.41,0,0,1-.05.09L116,101.61a2.51,2.51,0,0,1-.31.26.89.89,0,0,1-.18,0ZM115.55,74,103,86.5a2.15,2.15,0,0,0-.18.29c.11.13.21.26.32.38l12,12a4.43,4.43,0,0,0,.42.33c4.16-4.16,8.28-8.27,12.39-12.39a2.5,2.5,0,0,0,.25-.34c-.1-.13-.16-.25-.25-.35Z"/>
            <path class="cls-1"
                  d="M172.74,101.9c-.61-.48-14.3-14.13-15.15-15.1.11-.37.44-.58.7-.84l11.33-11.33,2.47-2.47.63-.59c.14.12.28.21.4.32,2.76,2.62,14.19,14.12,14.76,14.85a.21.21,0,0,1,0,.2l-14.68,14.67a1.94,1.94,0,0,1-.31.26A.38.38,0,0,1,172.74,101.9Zm0-27.79s-.08,0-.1,0l-.53.47q-6,6-12,12a.19.19,0,0,0,0,.09h0L172.8,99.4a3.3,3.3,0,0,0,.41-.34l11.85-11.84a4.64,4.64,0,0,0,.36-.44C184.84,86,173.41,74.6,172.75,74.11Z"/>
            <path class="cls-1"
                  d="M214.81,86.75c.47-.63,13.76-14,15.1-15.16a5.19,5.19,0,0,1,.46.36l14.39,14.38c.12.12.22.25.31.34s0,.12,0,.16a.22.22,0,0,1-.05.08l-14.82,14.83a1.67,1.67,0,0,1-.26.17,1.61,1.61,0,0,1-.26-.15L214.87,86.93S214.83,86.81,214.81,86.75Zm27.84-.06L230.33,74.38c-.12-.11-.26-.21-.41-.33a5.26,5.26,0,0,0-.41.35L217.59,86.32a4.58,4.58,0,0,0-.35.45c.9,1,12.08,12.19,12.69,12.64C230.57,98.94,242,87.55,242.65,86.69Z"/>
            <path class="cls-1"
                  d="M73.54,143.89C73,144.54,59.3,158.3,58.43,159c-.24,0-.35-.17-.49-.31q-7.2-7.18-14.39-14.38c-.12-.12-.22-.25-.31-.34a.58.58,0,0,1,0-.16.18.18,0,0,1,0-.09L58.1,128.93a1.38,1.38,0,0,1,.25-.17c.79.61,9.48,9.22,14.81,14.68A5.32,5.32,0,0,1,73.54,143.89ZM58.37,156.61a2.7,2.7,0,0,0,.37-.31q6.1-6.11,12.2-12.22a.19.19,0,0,0,0-.09.92.92,0,0,0,0-.17c-.1-.11-.22-.27-.36-.41L58.8,131.57a4.34,4.34,0,0,0-.5-.38Q52,137.46,45.84,143.65a1.23,1.23,0,0,0-.14.25C46.17,144.53,57.35,155.74,58.37,156.61Z"/>
            <path class="cls-1"
                  d="M130.71,143.83,115.5,159c.06,0,0,0,0,0a.16.16,0,0,1-.09-.05q-7.45-7.42-14.9-14.88s-.05-.12-.08-.18a.34.34,0,0,1,0-.1.41.41,0,0,1,0-.09l.5-.52,14.47-14.46c.39.08.57.39.8.62,3,3,6,5.95,8.94,8.93l4.8,4.79ZM115.6,131.17c-1.23,1.05-12.25,12.12-12.7,12.73,0,0,0,.08,0,.1a4.49,4.49,0,0,0,.41.46l12.08,12a.19.19,0,0,0,.09.05l.2,0L128,144.25a3.78,3.78,0,0,0,.25-.34,2.5,2.5,0,0,0-.25-.34Z"/>
            <path class="cls-1"
                  d="M188,143.9C187,145,173.39,158.55,172.77,159l-.1,0a.2.2,0,0,1-.09-.05l-14.76-14.73a2.23,2.23,0,0,1-.19-.24.34.34,0,0,1,0-.1c.47-.64,13.68-13.89,15.1-15.16a3.87,3.87,0,0,1,.45.35l14.4,14.38Zm-27.86.07c1,1.11,12,12.14,12.69,12.61.2-.17.41-.34.6-.53l3.05-3.05q4.19-4.19,8.36-8.36c.23-.23.56-.41.61-.86l-12.33-12.32a1.24,1.24,0,0,0-.27-.19Z"/>
            <path class="cls-1"
                  d="M14.71,115.33l15.13-15.12c.08.07.24.19.39.33,4.44,4.29,14.06,14,14.68,14.79a.34.34,0,0,1,0,.1.14.14,0,0,1,0,.08L30.18,130.19a2.6,2.6,0,0,1-.32.26s-.06,0,0,0ZM29.81,128c.23-.21.46-.41.67-.62l3.64-3.63,7.7-7.71c.23-.23.56-.41.61-.86L30.09,102.88a2.27,2.27,0,0,0-.34-.24c-.12.1-.24.18-.33.27L17.35,115a2.11,2.11,0,0,0-.25.35Z"/>
            <path class="cls-1"
                  d="M102.15,115.39,87.22,130.33a1.28,1.28,0,0,1-.25.15c-.62-.49-14.35-14.17-15.16-15.11.11-.37.44-.58.7-.83q5.4-5.43,10.82-10.83l2.84-2.83.76-.74a4.91,4.91,0,0,1,.41.33C90.21,103.19,101.52,114.58,102.15,115.39Zm-27.9,0,.39.42,12.15,12.13.09,0,.16,0,.71-.67c1.57-1.57,3.15-3.14,4.72-4.72q3.32-3.3,6.61-6.61c.21-.21.52-.36.52-.81l-12.32-12.3a3.19,3.19,0,0,0-.32-.23C86.2,103.27,74.81,114.67,74.25,115.37Z"/>
            <path class="cls-1"
                  d="M129.08,115.33l15.13-15.12c.09.07.25.19.4.33,4.49,4.34,14.06,14,14.68,14.79a.34.34,0,0,1,0,.1.22.22,0,0,1-.05.08q-7.38,7.38-14.75,14.75a2.23,2.23,0,0,1-.24.19s-.07,0,0,0Zm27.82,0c-.21-.25-.33-.41-.47-.55L144.58,103a4.62,4.62,0,0,0-.48-.36l-.56.53-12,12a.26.26,0,0,0-.05.09.34.34,0,0,0,0,.1c.46.61,11.7,11.87,12.62,12.65a1.26,1.26,0,0,0,.26-.13Z"/>
            <path class="cls-1"
                  d="M186.21,115.34c.49-.67,13.41-13.65,15.09-15.16a2.32,2.32,0,0,1,.83.7l13.66,13.65.75.78a4.24,4.24,0,0,1-.31.4l-14.46,14.45c-.12.12-.25.22-.35.31l-.15,0-.09,0L186.5,115.75a4.15,4.15,0,0,1-.27-.32S186.22,115.37,186.21,115.34Zm27.85.06c-.74-.94-8.08-8.34-12.24-12.36-.15-.14-.31-.27-.49-.42-.18.16-.34.28-.48.42L189,114.88a5.19,5.19,0,0,0-.36.46c.75.89,12.08,12.18,12.72,12.67a2.72,2.72,0,0,0,.38-.31Z"/>
            <path class="cls-1"
                  d="M258.55,130.53c-1.08-.94-14.67-14.56-15.15-15.18a.34.34,0,0,1,0-.1.22.22,0,0,1,.05-.08q7.31-7.32,14.6-14.61c.12-.12.25-.23.38-.34s.06,0,.09,0c.62.49,14.23,14,15.13,15.07,0,.25-.16.36-.3.5L259,130.15C258.86,130.27,258.72,130.37,258.55,130.53Zm0-27.93c-1.19,1-12.24,12.11-12.7,12.73,0,0,0,.07,0,.09a4.24,4.24,0,0,0,.33.39l12.16,12.12a.14.14,0,0,0,.08,0,.85.85,0,0,0,.21,0c4-4,8.13-8.12,12.22-12.22.11-.11.2-.25.33-.4A2.24,2.24,0,0,0,271,115Z"/>
            <path class="cls-1"
                  d="M245.12,144l-14.93,14.95c-.07.06-.18.1-.38.22L214.72,144a3,3,0,0,1,.33-.44q7.26-7.26,14.53-14.53l.34-.29c.16.14.33.26.47.4C234.89,133.46,244.46,143.1,245.12,144Zm-27.9,0,.39.42,12.15,12.12a.16.16,0,0,0,.09,0l.16,0c.21-.2.47-.42.71-.66l3.7-3.71q3.79-3.76,7.56-7.56c.23-.23.57-.4.6-.86l-12.33-12.32a3.05,3.05,0,0,0-.32-.22C229.16,131.85,217.78,143.24,217.22,144Z"/>
            <path class="cls-1"
                  d="M129,172.51c.51-.67,13.94-14.14,15.14-15.2a5.32,5.32,0,0,1,.46.37L159,172.05a4.07,4.07,0,0,1,.3.35c0,.09,0,.12,0,.15a.19.19,0,0,1,0,.09q-7.44,7.46-14.9,14.89a.76.76,0,0,1-.18.09C143.54,187.15,130.13,173.8,129,172.51Zm15.2,12.67c.26-.25.51-.47.75-.71l5.09-5.09q3.14-3.12,6.25-6.25c.21-.21.52-.36.5-.81L144.38,160a.77.77,0,0,0-.27-.14,1.6,1.6,0,0,0-.25.18l-12.14,12.14a2,2,0,0,0-.24.35Z"/>
            <path class="cls-1"
                  d="M71.76,172.36l15.08-15.1a2.29,2.29,0,0,1,.37.23q7.41,7.39,14.82,14.82a.48.48,0,0,1,.07.18c-.62.82-10.19,10.47-14.67,14.79l-.41.34C82,182.55,76.91,177.52,71.76,172.36Zm15.17-12.58c-.15.13-.28.24-.4.36L74.61,172.05a4.62,4.62,0,0,0-.36.48l.54.56,12,12,.09.05h.17c.21-.2.46-.42.7-.66l4.8-4.8,6.54-6.54c.2-.21.52-.36.5-.8L87.27,160A3.33,3.33,0,0,0,86.93,159.78Z"/>
            <path class="cls-1"
                  d="M29.78,157.35c.62.48,14.28,14.1,15.13,15.07,0,.25-.17.36-.3.5L30.22,187.3c-.12.12-.25.22-.35.31h-.15l-.09-.05-14.9-14.88a.58.58,0,0,1-.08-.18.31.31,0,0,1,0-.1.26.26,0,0,1,.05-.09l14.67-14.68a1.94,1.94,0,0,1,.31-.26A.13.13,0,0,1,29.78,157.35Zm0,2.35L17.25,172.22a2.24,2.24,0,0,0-.17.29c.11.13.21.27.33.39l12,12c.12.12.21.28.52.23l12.29-12.29a2.12,2.12,0,0,0,.25-.35,2.94,2.94,0,0,0-.33-.41Z"/>
            <path class="cls-1"
                  d="M58.33,14.41a5.56,5.56,0,0,1,.49.41c4.39,4.23,14.07,14,14.69,14.79,0,0,0,.06,0,.1a.22.22,0,0,1,0,.08L58.7,44.54a2.23,2.23,0,0,1-.24.19l-.26.06-15-15.08a2.17,2.17,0,0,1,.72-.9L57.43,15.3Zm0,2.5-.56.53-12,12a.2.2,0,0,0-.06.09s0,.06,0,.1c.47.61,11.69,11.86,12.61,12.64l.1,0a1.56,1.56,0,0,0,.25-.17L70.94,29.79a.2.2,0,0,0,0-.09.63.63,0,0,0,0-.17,3.88,3.88,0,0,0-.35-.42C66.86,25.18,59.19,17.59,58.32,16.91Z"/>
            <path class="cls-1"
                  d="M187.92,258.24c-1.56,1.73-14.51,14.6-15.18,15.1-.61-.48-14.28-14.1-15.15-15.1.11-.37.44-.58.7-.83q5.63-5.64,11.26-11.26c.82-.83,1.65-1.65,2.47-2.47l.69-.67c.15.12.29.21.41.32C175.8,245.88,187.31,257.46,187.92,258.24Zm-15.2-12.74c-.15.13-.28.23-.4.35L160.4,257.76a4.67,4.67,0,0,0-.35.46c1,1.17,12.08,12.18,12.73,12.66.2-.17.41-.35.6-.54l3.05-3,8.36-8.36c.23-.23.56-.4.61-.86q-6.15-6.13-12.34-12.32A3.78,3.78,0,0,0,172.72,245.5Z"/>
            <path class="cls-1"
                  d="M115.54,273.43l-15-15a.92.92,0,0,1-.15-.25c.49-.66,13.66-13.88,15.11-15.17a3.73,3.73,0,0,1,.46.35l14.39,14.38c.12.11.22.25.31.34,0,.3-.18.41-.32.54l-14.24,14.24Zm-12.69-15.17c.26.26.46.49.68.7l11.86,11.83a.2.2,0,0,0,.09,0h.17l.7-.66,6.32-6.32c1.7-1.7,3.4-3.39,5.09-5.09.18-.19.46-.33.42-.74l-12.39-12.37a1.15,1.15,0,0,0-.27-.14C114.62,246.29,103.37,257.58,102.85,258.26Z"/>
            <path class="cls-1"
                  d="M58.37,273.34c-.61-.47-14.15-13.95-15.14-15.08,0-.37.37-.54.6-.78l9.74-9.73,4-4,.72-.7.14,0a.16.16,0,0,1,.09,0l14.84,14.8c.06.07.11.16.16.23v.12a.18.18,0,0,1-.06.09L58.93,272.9a5.87,5.87,0,0,1-.46.41S58.41,273.33,58.37,273.34ZM45.7,258.21c.5.63,11.83,12,12.63,12.65a.62.62,0,0,0,.19-.07l.23-.2L71,258.37a.26.26,0,0,0,0-.09v-.17a2.64,2.64,0,0,0-.29-.34l-12-12a2.46,2.46,0,0,0-.35-.24Z"/>
            <path class="cls-1"
                  d="M258.5,244.86l-15-15a1.58,1.58,0,0,1-.15-.24c.5-.69,13.45-13.7,15.11-15.19a3.37,3.37,0,0,1,.38.28l14.61,14.59a2.63,2.63,0,0,1,.22.3,3.37,3.37,0,0,1-.29.37L259,244.46Zm0-28q-6.25,6.27-12.46,12.46a1.5,1.5,0,0,0-.16.29c.11.13.2.27.32.39l12,12a.47.47,0,0,0,.52.22L271,230a2.93,2.93,0,0,0,.25-.35c-.13-.15-.22-.29-.34-.41C268.53,226.72,259.28,217.56,258.46,216.91Z"/>
            <path class="cls-1"
                  d="M29.74,43c.94.8,14.7,14.58,15.17,15.18a.34.34,0,0,1,0,.1.41.41,0,0,1,0,.09L30.26,73c-.12.12-.26.23-.39.34s-.06,0-.1,0c-.61-.47-14.24-14-15.14-15.08,0-.37.38-.54.61-.78q4.78-4.8,9.59-9.58L29,43.74ZM17.07,58.24l.68.71L29.61,70.78l.09,0a.85.85,0,0,0,.17,0c.2-.19.46-.42.7-.66l5.67-5.67c1.91-1.91,3.83-3.82,5.74-5.74.18-.18.45-.33.42-.74L30,45.65c-.06-.07-.17-.09-.26-.14C28.83,46.28,17.58,57.56,17.07,58.24Z"/>
            <path class="cls-1"
                  d="M102.13,58.1,86.9,73.31c.07,0,0,0,0,0a.16.16,0,0,1-.09,0L72.27,58.75a5.87,5.87,0,0,1-.41-.46s0-.06,0-.12a1,1,0,0,1,.14-.24L86.91,43c.37.11.58.44.83.69l12.94,12.93C101.16,57.13,101.65,57.61,102.13,58.1ZM86.9,70.9c.82-.65,10.06-9.81,12.42-12.29.11-.12.21-.26.34-.43-.19-.22-.36-.44-.55-.63L87.48,45.93c-.16-.16-.36-.29-.53-.44-1.07.91-12.19,12.08-12.66,12.7a1.28,1.28,0,0,0,.15.25Q80.65,64.65,86.9,70.9Z"/>
            <path class="cls-1"
                  d="M144.19,42.92l15.08,15a1.36,1.36,0,0,1,0,.3.41.41,0,0,1,0,.09l-14.9,14.88s-.12.06-.18.09c-.62-.47-14-13.81-15.13-15.06,0-.36.3-.51.51-.72l8-8,5.81-5.81Zm0,28c.26-.24.51-.47.75-.71l5.67-5.67,5.74-5.74c.19-.18.46-.33.43-.74-4.11-4.09-8.25-8.23-12.4-12.37a1.15,1.15,0,0,0-.27-.14,2.71,2.71,0,0,0-.25.19L131.72,57.83a2.48,2.48,0,0,0-.24.36Z"/>
            <path class="cls-1"
                  d="M216.62,58.24,201.57,73.31h-.29a.16.16,0,0,1-.09,0L186.72,58.82c-.17-.17-.32-.35-.48-.53,0,0,0-.06,0-.09a.47.47,0,0,1,.07-.19l14.93-15a2.2,2.2,0,0,1,.91.71L213.31,54.9l2.62,2.62ZM201.28,45.48l-.77.76Q194.62,52.12,188.74,58a.19.19,0,0,0-.05.09s0,.06,0,.1c.48.61,11.79,11.95,12.62,12.64a1.54,1.54,0,0,0,.19-.08,1.37,1.37,0,0,0,.23-.19l12.2-12.23a.26.26,0,0,0,.05-.09v-.1C213.5,57.52,202.09,46.1,201.28,45.48Z"/>
            <path class="cls-1"
                  d="M258.59,73.32l-15.2-15.19c.08-.09.2-.26.33-.4l14.39-14.38c.12-.12.25-.22.38-.33a2.91,2.91,0,0,1,.28.17Q266.2,50.6,273.59,58c.05.05.05.13.08.19C273.2,58.81,259.59,72.46,258.59,73.32ZM271.23,58.1Q265,51.83,258.75,45.65c-.06-.07-.17-.09-.3-.15l-.87.86Q252,51.91,246.46,57.47c-.23.24-.57.4-.6.83.84.85,1.69,1.69,2.54,2.54l2.54,2.54c.82.83,1.65,1.65,2.47,2.47s1.69,1.7,2.55,2.54,1.65,1.72,2.54,2.49C259.35,70.2,270.71,58.83,271.23,58.1Z"/>
            <path class="cls-1"
                  d="M201.32,244.86l-15-15a1.28,1.28,0,0,1-.15-.25c.5-.67,13.55-13.78,15.12-15.18.14.11.31.22.45.35l14.39,14.38c.12.12.22.25.38.42-.11.14-.2.28-.31.4l-14.46,14.45C201.65,244.58,201.52,244.68,201.32,244.86Zm0-2.48c.3-.28.55-.5.79-.74q5.6-5.59,11.19-11.19a2.63,2.63,0,0,0,.71-.82c-.59-.77-6.65-6.88-12.1-12.22-.17-.16-.36-.31-.56-.49a5.29,5.29,0,0,0-.41.34l-12,12a3.59,3.59,0,0,0-.34.43Z"/>
            <path class="cls-1"
                  d="M144.15,244.76c-.61-.47-14.19-14-15.14-15.08.05-.37.37-.54.61-.77l9.22-9.23,4.51-4.5.72-.7.13,0a.25.25,0,0,1,.09,0l14.84,14.8a1.67,1.67,0,0,1,.16.24.47.47,0,0,1,0,.12.41.41,0,0,1,0,.09q-7.28,7.26-14.53,14.53a6.1,6.1,0,0,1-.46.41A.15.15,0,0,1,144.15,244.76Zm0-2.45.45-.39c.56-.55,1.11-1.11,1.67-1.67q4.9-4.89,9.81-9.81a2.29,2.29,0,0,0,.7-.82c-.68-.86-8.07-8.31-12.18-12.29-.15-.14-.31-.26-.49-.41-.18.15-.34.28-.48.42l-11.85,11.84c-.14.14-.24.31-.36.45C132.22,230.54,143.53,241.82,144.18,242.31Z"/>
            <path class="cls-1"
                  d="M115.56,36.9l-7.29-7.29a2.11,2.11,0,0,1,.25-.35l6.75-6.75a2.15,2.15,0,0,1,.24-.18c.62.43,6.22,6,7.33,7.25a2.33,2.33,0,0,1-.26.38l-6.75,6.75A2.1,2.1,0,0,1,115.56,36.9Zm5.19-7.27a1.62,1.62,0,0,0-.19-.29c-1.55-1.55-3.09-3.1-4.65-4.64a2,2,0,0,0-.37-.25l-.23.15c-1.55,1.55-3.1,3.09-4.64,4.64a2.6,2.6,0,0,0-.29.42c.2.21.35.39.52.56l4.51,4.47a.19.19,0,0,0,.1.05h.1C116.23,34.25,119.78,30.73,120.75,29.63Z"/>
            <path class="cls-1"
                  d="M180,29.61c-.67.82-6.66,6.8-7.29,7.27-.61-.47-6.43-6.25-7.31-7.25a3.8,3.8,0,0,1,.29-.38q3.34-3.34,6.68-6.68l.31-.25C173.34,22.79,179.3,28.72,180,29.61Zm-7.31,5.14a.84.84,0,0,0,.21-.08l.45-.41,4.48-4.52a.12.12,0,0,0,0-.09.31.31,0,0,0,0-.09,61.43,61.43,0,0,0-5.24-5.13l-4.84,4.84a3.4,3.4,0,0,0-.21.3c0,.11,0,.19.09.23l4.78,4.8A1.58,1.58,0,0,0,172.72,34.75Z"/>
            <path class="cls-1"
                  d="M230,36.91l-7.3-7.3a2.11,2.11,0,0,1,.25-.35c2.24-2.25,4.5-4.5,6.75-6.75a2.15,2.15,0,0,1,.24-.18c.61.43,6.31,6.07,7.33,7.25a3,3,0,0,1-.34.46c-2.19,2.21-4.4,4.41-6.6,6.61C230.18,36.74,230.07,36.81,230,36.91Zm0-12.49c-.19.17-.34.3-.49.45l-4.54,4.58a.2.2,0,0,0-.05.09.9.9,0,0,0,0,.17,3.56,3.56,0,0,0,.29.34l4.66,4.63s.12,0,.24.08a4.7,4.7,0,0,0,.43-.38q2.17-2.16,4.35-4.35a3.45,3.45,0,0,0,.33-.45C234.22,28.56,230.6,25,229.9,24.42Z"/>
            <path class="cls-1"
                  d="M87,236.92l-7.3-7.29a2.11,2.11,0,0,1,.25-.35c2.24-2.25,4.5-4.5,6.75-6.75a1.37,1.37,0,0,1,.24-.18c.61.43,6.31,6.06,7.33,7.25a3.63,3.63,0,0,1-.34.46l-6.6,6.6A2.91,2.91,0,0,1,87,236.92Zm-.13-2.14a.6.6,0,0,0,.19,0,1.38,1.38,0,0,0,.25-.17l4.77-4.79a.14.14,0,0,0,0-.09.34.34,0,0,0,0-.1,65.26,65.26,0,0,0-5.19-5.12c-.12.1-.25.19-.37.31-1.48,1.47-3,2.94-4.43,4.43a3.6,3.6,0,0,0-.34.5Z"/>
            <path class="cls-1"
                  d="M29.71,222.3c.8.63,6.82,6.66,7.35,7.36-.73.88-1.6,1.64-2.4,2.47s-1.6,1.6-2.4,2.4-1.62,1.65-2.51,2.47l-7.26-7.16c0-.22,0-.26,0-.29a.16.16,0,0,1,.06-.08c.16-.18.32-.35.49-.52C25.26,226.75,27.47,224.55,29.71,222.3Zm.09,12.54c.92-.83,1.77-1.72,2.63-2.59s1.78-1.67,2.54-2.62a67.66,67.66,0,0,0-5.23-5.16,3.65,3.65,0,0,0-.31.24q-2.36,2.35-4.7,4.73c-.05,0-.05.12-.07.18s0,.15.06.19l4.63,4.65A5.43,5.43,0,0,0,29.8,234.84Z"/>
            <path class="cls-1"
                  d="M230,208.35l-7.3-7.3a2.11,2.11,0,0,1,.25-.35c2.24-2.25,4.5-4.5,6.75-6.75a2.15,2.15,0,0,1,.24-.18c.61.43,6.31,6.07,7.33,7.26a3.54,3.54,0,0,1-.34.45c-2.19,2.21-4.4,4.41-6.6,6.61C230.18,208.18,230.07,208.26,230,208.35Zm-5.13-7.28a65.6,65.6,0,0,0,5.14,5.14,2.13,2.13,0,0,0,.32-.23q2.33-2.31,4.64-4.64a1.3,1.3,0,0,0,.19-.31A59.42,59.42,0,0,0,230,196Z"/>
            <path class="cls-1"
                  d="M165.48,201c.77-.91,6.65-6.74,7.26-7.21.63.47,6.65,6.46,7.29,7.27a32.82,32.82,0,0,1-2.39,2.48c-.79.81-1.59,1.6-2.39,2.39s-1.61,1.67-2.44,2.39Zm12.43,0a1,1,0,0,0-.15-.24q-2.35-2.37-4.72-4.72a1.9,1.9,0,0,0-.35-.21c-.3.29-.57.54-.83.81-1.4,1.4-2.79,2.81-4.19,4.22a.3.3,0,0,0,0,.1v.13a1.34,1.34,0,0,0,.16.22q2.39,2.4,4.79,4.78l.1,0h.09A69.24,69.24,0,0,0,177.91,201Z"/>
            <path class="cls-1"
                  d="M115.56,208.34l-7.29-7.28a2,2,0,0,1,.24-.35l6.76-6.75a1.81,1.81,0,0,1,.23-.18c.63.42,6.15,5.87,7.34,7.24a1.83,1.83,0,0,1-.26.38q-3.36,3.39-6.75,6.75A1.57,1.57,0,0,1,115.56,208.34Zm0-2.12a1.76,1.76,0,0,0,.3-.19l4.71-4.71a1,1,0,0,0,.16-.31l-5-5a.69.69,0,0,0-.25-.1,1.28,1.28,0,0,0-.19.12q-2.37,2.35-4.72,4.72a1.8,1.8,0,0,0-.2.31C110.94,201.73,114.69,205.5,115.55,206.22Z"/>
            <path class="cls-1"
                  d="M58.4,193.7l7,7a3.78,3.78,0,0,1,.25.34,1.87,1.87,0,0,1-.25.34c-2.31,2.32-4.64,4.64-6.9,6.9l-.19,0a.19.19,0,0,1-.09-.05l-7-7a1.25,1.25,0,0,1-.16-.24C51.57,200.42,57,194.93,58.4,193.7Zm0,2.19a1.28,1.28,0,0,0-.24.15l-4.71,4.71a1.63,1.63,0,0,0-.21.34,4,4,0,0,0,.27.34l4.73,4.7a.18.18,0,0,0,.1,0h.1a70.58,70.58,0,0,0,5.11-5.13c0-.06,0-.14-.08-.18q-2.38-2.4-4.78-4.79A2.09,2.09,0,0,0,58.37,195.89Z"/>
            <path class="cls-1"
                  d="M222.66,258.26,230,251c.56.4,6.45,6.25,7.26,7.22a3.28,3.28,0,0,1-.27.38l-6.68,6.68c-.1.09-.21.16-.31.24C229.32,265,223.63,259.37,222.66,258.26Zm7.23-5.24c-.14.13-.25.21-.35.31l-4.42,4.42a3.64,3.64,0,0,0-.36.49c.17.19.3.35.44.49l4.59,4.55a.16.16,0,0,0,.09.05H230a2.64,2.64,0,0,0,.29-.23l4.71-4.72a.6.6,0,0,0,.06-.19A70.37,70.37,0,0,0,229.89,253Z"/>
            <path class="cls-1"
                  d="M265.81,172.5c-.86,1-6.7,6.81-7.26,7.22l-7.29-7.28c0,.05,0,0,0,0a.26.26,0,0,1,.05-.09l6.6-6.62c.16-.16.35-.32.53-.48,0,0,.06,0,.09,0C259.18,165.71,265.21,171.73,265.81,172.5Zm-7.39,5.13.18,0a1.56,1.56,0,0,0,.25-.17l4.78-4.8a.26.26,0,0,0,.05-.09.34.34,0,0,0,0-.1,70.77,70.77,0,0,0-5.19-5.12c-.12.1-.26.19-.38.31l-4.42,4.43a3,3,0,0,0-.34.51Z"/>
            <path class="cls-1"
                  d="M201.3,165.2c.62.44,6.46,6.24,7.32,7.26a1.89,1.89,0,0,1-.27.38l-6.67,6.68a3.4,3.4,0,0,1-.31.25c-.65-.49-6.25-6-7.33-7.26a1.49,1.49,0,0,1,.2-.31l6.82-6.83A2.07,2.07,0,0,1,201.3,165.2Zm0,2.14a1.23,1.23,0,0,0-.25.14l-4.71,4.72a1.1,1.1,0,0,0-.17.32,1.08,1.08,0,0,0,.14.21l4.71,4.72a2.07,2.07,0,0,0,.32.19,3.22,3.22,0,0,0,.29-.21l4.78-4.79a.26.26,0,0,0,.05-.09v-.15c-.06-.07-.14-.19-.23-.28l-4.73-4.7A.64.64,0,0,0,201.33,167.34Z"/>
            <path class="cls-1"
                  d="M65.62,86.82a2,2,0,0,1-.21.28L58.5,94l-.19,0a.18.18,0,0,1-.09-.06l-6.69-6.66a4.49,4.49,0,0,1-.41-.46s0-.06,0-.09c.47-.63,6.11-6.3,7.21-7.27h.1a.25.25,0,0,1,.09,0l6.77,6.74a3.22,3.22,0,0,1,.33.39S65.61,86.73,65.62,86.82ZM58.33,81.6c-.09.08-.21.15-.3.24l-4.71,4.72a1,1,0,0,0-.09.24c.06.08.13.2.21.29,1.07,1.17,4.34,4.36,4.91,4.8a.18.18,0,0,0,.1,0,1.49,1.49,0,0,0,.32-.24l4.7-4.72a.41.41,0,0,0,.05-.09.33.33,0,0,0,0-.1A66.92,66.92,0,0,0,58.33,81.6Z"/>
            <path class="cls-1"
                  d="M108.28,86.71c1-1.09,6.67-6.76,7.28-7.22.66.51,6.69,6.53,7.24,7.24a.27.27,0,0,1,0,.09.13.13,0,0,1,0,.09l-6.51,6.55-.52.49a.25.25,0,0,1-.13.06Zm7.37,5.23c.86-.86,1.71-1.69,2.55-2.54s1.77-1.69,2.55-2.62a1.53,1.53,0,0,0-.2-.3l-4.8-4.78a.64.64,0,0,0-.2-.08.89.89,0,0,0-.25.14l-4.71,4.71a.84.84,0,0,0-.15.27Z"/>
            <path class="cls-1"
                  d="M165.47,86.71c.95-1.09,6.67-6.76,7.28-7.22.66.51,6.69,6.53,7.24,7.24a.27.27,0,0,1,0,.09.19.19,0,0,1-.05.09l-6.51,6.55-.52.49a.25.25,0,0,1-.13.06Zm2.1.09c.15.17.26.31.38.43l4.35,4.35a.63.63,0,0,0,.6.29c.79-.79,1.65-1.62,2.48-2.47s1.77-1.69,2.55-2.61a67.94,67.94,0,0,0-5.17-5.16A66.48,66.48,0,0,0,167.57,86.8Z"/>
            <path class="cls-1"
                  d="M229.89,94c-.9-.78-6.74-6.65-7.23-7.26,0,0,0-.07,0-.1a.41.41,0,0,1,0-.09l6.52-6.54.62-.6a2.19,2.19,0,0,1,.34.21L237,86.41a1.56,1.56,0,0,1,.22.28.5.5,0,0,1,0,.15.26.26,0,0,1,0,.09l-6.81,6.83A2.51,2.51,0,0,1,230,94,.38.38,0,0,1,229.89,94Zm.09-2.17a66.82,66.82,0,0,0,5.11-5.13,1.49,1.49,0,0,0-.14-.24c-1.57-1.58-3.15-3.15-4.72-4.71a1.3,1.3,0,0,0-.31-.19,1.43,1.43,0,0,0-.22.14L225,86.45a.9.9,0,0,0-.16.26Z"/>
            <path class="cls-1"
                  d="M51.09,144l7.31-7.29c.55.4,6.44,6.25,7.25,7.22a2.4,2.4,0,0,1-.27.38L58.7,151a2.34,2.34,0,0,1-.31.24C57.75,150.7,52.09,145.09,51.09,144Zm7.35,5.09a4.07,4.07,0,0,0,.36-.3l4.5-4.5a3.53,3.53,0,0,0,.29-.43l-5.08-5s-.12,0-.22-.06c-.14.13-.3.26-.44.4l-4.55,4.59a.13.13,0,0,0,0,.09.5.5,0,0,0,0,.15c.06.07.13.19.22.28L58.2,149C58.24,149,58.32,149,58.44,149.05Z"/>
            <path class="cls-1"
                  d="M122.84,143.88c-.52.68-6.52,6.7-7.27,7.29h-.09l-.09-.06L109,144.74c-.25-.24-.48-.49-.76-.78a2.37,2.37,0,0,1,.28-.4l6.75-6.75a2.15,2.15,0,0,1,.24-.18C116.12,137.05,121.72,142.58,122.84,143.88Zm-7.3-5.12a1.58,1.58,0,0,0-.24.15l-4.71,4.71a1.29,1.29,0,0,0-.18.32c.07.1.09.17.14.21l4.72,4.72a1.49,1.49,0,0,0,.37.23c.87-.87,1.72-1.7,2.56-2.56s1.77-1.68,2.57-2.63a3.42,3.42,0,0,0-.29-.36l-4.73-4.7S115.63,138.8,115.54,138.76Z"/>
            <path class="cls-1"
                  d="M165.47,143.93c.48-.65,5.83-6.06,7.24-7.31a1,1,0,0,1,.31.19l6.76,6.75a2.67,2.67,0,0,1,.24.32,1.21,1.21,0,0,1-.16.28l-7,7c-.14,0-.17.05-.2,0a.19.19,0,0,1-.09-.05l-7-6.95A1.32,1.32,0,0,1,165.47,143.93Zm2.13,0a2,2,0,0,0,.25.32l4.72,4.7a.76.76,0,0,0,.23.08,1.91,1.91,0,0,0,.3-.22l4.64-4.65a1.71,1.71,0,0,0,.21-.36l-1.77-1.76c-.56-.56-1.1-1.12-1.67-1.67a13.64,13.64,0,0,0-1.72-1.62Z"/>
            <path class="cls-1"
                  d="M37.06,115.35c-.87,1-6.7,6.81-7.41,7.33l-7.15-7.16a1,1,0,0,1,0-.25.41.41,0,0,1,0-.09l6.59-6.61c.17-.17.35-.33.53-.48,0,0,.06,0,.09,0C30.43,108.56,36.46,114.59,37.06,115.35Zm-12.4,0a64.06,64.06,0,0,0,5.15,5.14,3.32,3.32,0,0,0,.38-.3q2.25-2.23,4.5-4.5a2.89,2.89,0,0,0,.27-.37,61.17,61.17,0,0,0-5.16-5.09Z"/>
            <path class="cls-1"
                  d="M94.22,115.38c-.88,1-6.68,6.79-7.24,7.2l-7.28-7.29s0,0,0,0a.41.41,0,0,1,0-.09l6.74-6.76c.12-.12.25-.23.38-.34H87c.46.35,6.62,6.41,7.16,7.05A.82.82,0,0,1,94.22,115.38Zm-2.11-.09a68.44,68.44,0,0,0-5.16-5.1.92.92,0,0,0-.25.15L82,115.05a1.24,1.24,0,0,0-.17.32c.07.1.1.17.14.22l4.72,4.71a.89.89,0,0,0,.25.16Z"/>
            <path class="cls-1"
                  d="M144.1,108c.86.69,6.83,6.68,7.3,7.31,0,0,0,.07,0,.1a.41.41,0,0,1,0,.09l-6.89,6.9a1.6,1.6,0,0,1-.25.18l-.09,0c-.94-.81-6.74-6.65-7.23-7.26,0,0,0-.07,0-.1l.06-.09,6.59-6.61Zm5.24,7.35a72.83,72.83,0,0,0-5.21-5.19,3,3,0,0,0-.3.23q-2.29,2.28-4.57,4.57a2.19,2.19,0,0,0-.28.42c.24.25.44.48.66.7l4.37,4.33.09,0a.16.16,0,0,0,.1,0C144.83,120,148.42,116.4,149.34,115.36Z"/>
            <path class="cls-1"
                  d="M201.36,122.63c-.64-.5-6.53-6.36-7.33-7.29a33,33,0,0,1,2.4-2.48c.78-.81,1.59-1.6,2.39-2.4l2.45-2.44c.68.5,6.66,6.46,7.36,7.32a4.64,4.64,0,0,1-.36.44l-6.53,6.53C201.62,122.43,201.48,122.53,201.36,122.63Zm5.17-7.29a64.25,64.25,0,0,0-5.23-5.16,2.1,2.1,0,0,0-.3.24l-4.71,4.72a.47.47,0,0,0-.07.19c0,.06,0,.14.07.18l4.62,4.66c.12.12.26.21.38.32A61.52,61.52,0,0,0,206.53,115.34Z"/>
            <path class="cls-1"
                  d="M251.26,115.34c.47-.64,6-6.21,7.21-7.27h.09a.13.13,0,0,1,.1,0l6.62,6.58a4.47,4.47,0,0,1,.42.45.77.77,0,0,1,.09.23,2.47,2.47,0,0,1-.22.29l-6.9,6.91c-.14,0-.17,0-.2,0l-.09,0-7-7A.42.42,0,0,1,251.26,115.34Zm12.48.06a69.73,69.73,0,0,0-5.23-5.23,2.26,2.26,0,0,0-.31.23L253.63,115a3.2,3.2,0,0,0-.29.43l.82.84,4.23,4.18a.15.15,0,0,0,.09,0,.7.7,0,0,0,.22,0Z"/>
            <path class="cls-1"
                  d="M237.22,143.89c-.58.74-6.61,6.76-7.28,7.28-.62-.46-6.18-6-7.31-7.23a1.55,1.55,0,0,1,.2-.32l6.82-6.82a1.38,1.38,0,0,1,.25-.17C230.5,137.06,236.33,142.83,237.22,143.89Zm-7.33,5.16a.68.68,0,0,0,.22-.08,4.47,4.47,0,0,0,.45-.42q2.25-2.25,4.48-4.51a.15.15,0,0,0,0-.09.34.34,0,0,0,0-.1,61.73,61.73,0,0,0-5.17-5.08c-.57.44-3.86,3.67-4.9,4.8a2.32,2.32,0,0,0-.21.29,1.1,1.1,0,0,0,.08.24l4.71,4.72A2,2,0,0,0,229.89,149.05Z"/>
            <path class="cls-1"
                  d="M151.46,172.48c-1,1.14-6.74,6.84-7.42,7.33l-7.17-7.12a1.58,1.58,0,0,1,0-.28.41.41,0,0,1,.05-.09l.35-.37,6.79-6.79a2.67,2.67,0,0,1,.41.28q3.34,3.34,6.68,6.68A3.2,3.2,0,0,1,151.46,172.48Zm-7.39-5.18-4.84,4.84a1.65,1.65,0,0,0-.21.3c0,.11,0,.19.08.23l4.78,4.8a1.28,1.28,0,0,0,.25.15.76.76,0,0,0,.2-.08,5.92,5.92,0,0,0,.45-.41l4.48-4.52a.25.25,0,0,0,0-.09.33.33,0,0,0,0-.1A61.23,61.23,0,0,0,144.07,167.3Z"/>
            <path class="cls-1"
                  d="M86.92,165.18c.68.52,6.71,6.53,7.29,7.26a.34.34,0,0,1,0,.1.26.26,0,0,1,0,.09c-.19.2-.37.41-.56.6l-6.47,6.44a.25.25,0,0,1-.13.06l-7.31-7.31c.69-.83,1.56-1.6,2.37-2.42s1.59-1.6,2.39-2.4S86.06,165.94,86.92,165.18Zm0,2.12c-.84.84-1.7,1.68-2.53,2.53s-1.79,1.68-2.54,2.63a61.75,61.75,0,0,0,5.2,5.17,3,3,0,0,0,.3-.23c1.56-1.54,3.1-3.09,4.65-4.64a1,1,0,0,0,.14-.24Z"/>
            <path class="cls-1"
                  d="M22.43,172.53l7.33-7.32a1.14,1.14,0,0,1,.29.17l6.75,6.75a2.42,2.42,0,0,1,.22.28.53.53,0,0,1,0,.15.26.26,0,0,1,0,.09l-6.81,6.83a1.07,1.07,0,0,1-.23.2.86.86,0,0,1-.23.1Zm12.51-.06a1.28,1.28,0,0,0-.15-.25c-1.57-1.57-3.14-3.15-4.72-4.71a2.27,2.27,0,0,0-.36-.22l-1.77,1.76c-.56.55-1.12,1.1-1.67,1.67a16.09,16.09,0,0,0-1.66,1.75,1.62,1.62,0,0,0,.21.31l4.8,4.78a.19.19,0,0,0,.09,0h.09A71.21,71.21,0,0,0,34.94,172.47Z"/>
            <path class="cls-1"
                  d="M58.4,22.26l7,7a2.5,2.5,0,0,1,.25.34,3.34,3.34,0,0,1-.25.34l-6.9,6.9c-.13,0-.17,0-.2,0s-.06,0-.08-.05l-7-7a1,1,0,0,1-.08-.18C51.57,29,57,23.47,58.4,22.26Zm-5.18,7.38a1,1,0,0,0,.15.22l4.71,4.72a2.07,2.07,0,0,0,.32.19,3.22,3.22,0,0,0,.29-.21l4.77-4.79a.14.14,0,0,0,0-.09.34.34,0,0,0,0-.1,70.6,70.6,0,0,0-5.15-5.11A67.92,67.92,0,0,0,53.22,29.64Z"/>
            <path class="cls-1"
                  d="M172.78,250.85l7,7a3.34,3.34,0,0,1,.25.34,3.78,3.78,0,0,1-.25.34l-6.91,6.91c-.13,0-.17,0-.19,0a.19.19,0,0,1-.09-.05l-7-7a.48.48,0,0,1-.07-.18C166,257.58,171.53,252,172.78,250.85Zm0,12.5a3.76,3.76,0,0,0,.31-.25l4.71-4.72s0-.12.07-.21a1.05,1.05,0,0,0-.15-.24L173,253.22a1.37,1.37,0,0,0-.34-.19c-.13.12-.24.2-.34.3l-4.42,4.42a4.29,4.29,0,0,0-.32.43C169.35,259.91,171.05,261.59,172.81,263.35Z"/>
            <path class="cls-1"
                  d="M122.86,258.21c-1.26,1.44-6.73,6.84-7.35,7.27-1-.83-6.74-6.65-7.22-7.26a.31.31,0,0,1,0-.1.24.24,0,0,1,.06-.09l6.59-6.61.55-.52a1.33,1.33,0,0,1,.33.21q3.39,3.36,6.76,6.74A3.35,3.35,0,0,1,122.86,258.21ZM115.52,253c-.15.13-.26.21-.36.31l-4.42,4.42a4.78,4.78,0,0,0-.36.49c.17.19.3.35.44.49l4.59,4.55a.16.16,0,0,0,.09.05h.15c.07-.06.19-.14.28-.23l4.71-4.72c0-.05,0-.13.07-.19A72.38,72.38,0,0,0,115.52,253Z"/>
            <path class="cls-1"
                  d="M58.43,265.46l-7.32-7.32c.67-.83,1.55-1.59,2.35-2.42s1.59-1.59,2.39-2.39l2.46-2.44c.68.52,6.69,6.51,7.33,7.31a1.8,1.8,0,0,1-.2.31l-6.75,6.75A2.31,2.31,0,0,1,58.43,265.46Zm0-2.11a2.6,2.6,0,0,0,.31-.25c1.58-1.57,3.14-3.14,4.71-4.72a.61.61,0,0,0,.08-.21,1.67,1.67,0,0,0-.16-.24l-4.71-4.71a1.86,1.86,0,0,0-.34-.19,3.77,3.77,0,0,0-.34.3l-4.43,4.42a4.05,4.05,0,0,0-.31.43Z"/>
            <path class="cls-1"
                  d="M251.26,229.63c.47-.63,6.12-6.32,7.21-7.27h.1a.16.16,0,0,1,.09,0l6.77,6.72a4.39,4.39,0,0,1,.33.4s0,.06,0,.15a2.2,2.2,0,0,1-.22.28l-6.9,6.91a.77.77,0,0,1-.2,0,.1.1,0,0,1-.08,0l-6.69-6.66a5.87,5.87,0,0,1-.41-.46S251.27,229.66,251.26,229.63Zm2.13,0a1.6,1.6,0,0,0,.18.25q2.38,2.4,4.79,4.78a.23.23,0,0,0,.1,0l.09,0a69.93,69.93,0,0,0,5.16-5.17c-.09-.11-.19-.25-.3-.37L259,224.8a3.44,3.44,0,0,0-.41-.3Z"/>
            <path class="cls-1"
                  d="M22.5,58.25,29.8,51c.55.39,6.39,6.18,7.26,7.22a2.4,2.4,0,0,1-.27.38q-3.33,3.35-6.68,6.68a3.65,3.65,0,0,1-.31.24C29.16,65,23.58,59.46,22.5,58.25Zm2.17,0a.46.46,0,0,0,.06.19c.54.65,4.58,4.59,5.08,5a2.26,2.26,0,0,0,.31-.23q2.32-2.31,4.64-4.64a1.55,1.55,0,0,0,.2-.32,58.13,58.13,0,0,0-5.17-5.07Z"/>
            <path class="cls-1"
                  d="M86.92,50.9c.64.46,6.57,6.36,7.33,7.28-.09.11-.17.26-.28.38l-6.68,6.67a2.42,2.42,0,0,1-.31.25c-.63-.5-6.4-6.22-7.33-7.28a3.47,3.47,0,0,1,.29-.38l6.68-6.68A2.25,2.25,0,0,1,86.92,50.9Zm5.2,7.26a1.05,1.05,0,0,0-.15-.24c-1.57-1.57-3.14-3.15-4.72-4.71a1.09,1.09,0,0,0-.31-.18c-.1.07-.17.09-.21.14L82,57.88a1.48,1.48,0,0,0-.21.35c.13.15.23.29.35.41l4.66,4.62a.16.16,0,0,0,.09.05h.15c.08-.06.19-.13.29-.22L92,58.37S92.09,58.24,92.12,58.16Z"/>
            <path class="cls-1"
                  d="M144.18,65.54c-1.11-1-6.82-6.73-7.3-7.34.47-.65,5.89-6.11,7.24-7.31a1.49,1.49,0,0,1,.31.2l6.76,6.75a2.67,2.67,0,0,1,.24.32,2.13,2.13,0,0,1-.16.28ZM139,58.21c.27.29.47.51.69.73L144,63.27a.18.18,0,0,0,.09,0,.77.77,0,0,0,.2,0c.79-.79,1.65-1.62,2.48-2.47s1.77-1.69,2.56-2.61a72,72,0,0,0-5.17-5.17c-.06,0-.15,0-.19.06l-4.72,4.71A3.29,3.29,0,0,0,139,58.21Z"/>
            <path class="cls-1"
                  d="M201.29,50.9c.62.43,6.19,5.93,7.33,7.25a2.34,2.34,0,0,1-.25.39l-6.76,6.75a2.81,2.81,0,0,1-.3.21c-.52-.43-1-.94-1.45-1.41s-1-1-1.45-1.45-1-1-1.45-1.45l-1.46-1.45L194,58.25a3.64,3.64,0,0,1,.29-.41l6.75-6.75A2.23,2.23,0,0,1,201.29,50.9Zm.05,2.06c-.25.23-.43.39-.59.55L196.27,58a.15.15,0,0,0,0,.09.63.63,0,0,0,0,.17,14.79,14.79,0,0,0,1.24,1.28c.41.42.82.82,1.23,1.23L200,62.11a11.75,11.75,0,0,0,1.31,1.24,69.91,69.91,0,0,0,5.18-5.15.47.47,0,0,0-.07-.19l-4.63-4.65C201.67,53.24,201.54,53.14,201.34,53Z"/>
            <path class="cls-1"
                  d="M251.21,58.23c.54-.68,6.43-6.6,7.28-7.32.6.42,6.24,6,7.32,7.24a2.41,2.41,0,0,1-.26.39l-6.75,6.75a1.67,1.67,0,0,1-.24.16h-.11l-.09,0-6.47-6.45Zm2.17,0a1.53,1.53,0,0,0,.15.23l4.71,4.71a1.8,1.8,0,0,0,.31.2,2.45,2.45,0,0,0,.3-.21l4.77-4.8a.11.11,0,0,0,.05-.09.31.31,0,0,0,0-.1,72.46,72.46,0,0,0-5.15-5.1A64.31,64.31,0,0,0,253.38,58.21Z"/>
            <path class="cls-1"
                  d="M201.4,236.88l-7.32-7.31c.67-.84,1.55-1.59,2.35-2.42s1.59-1.6,2.39-2.4l2.46-2.43c.68.51,6.69,6.5,7.34,7.3a2.11,2.11,0,0,1-.21.31l-6.75,6.75A1.13,1.13,0,0,1,201.4,236.88Zm5.07-7.3c-.38-.49-4.59-4.75-5-5.06,0,0-.13,0-.19,0l-5,4.91c-.06.06-.06.18-.1.29.12.13.22.27.34.39l4.36,4.35c.14.14.26.33.39.31Z"/>
            <path class="cls-1"
                  d="M136.89,229.57c.77-.9,6.65-6.74,7.25-7.21.64.48,6.65,6.47,7.3,7.28a32.75,32.75,0,0,1-2.39,2.47q-1.19,1.21-2.4,2.4c-.82.81-1.61,1.67-2.43,2.39C141.77,234.44,139.35,232,136.89,229.57Zm2.13.1a1.56,1.56,0,0,0,.17.25l4.8,4.78a.15.15,0,0,0,.09,0h.1a69.5,69.5,0,0,0,5.15-5.15,3,3,0,0,0-.23-.3c-1.52-1.53-3-3.05-4.57-4.57a2.27,2.27,0,0,0-.33-.23Z"/>
        </g>
    </g>
</svg>